<svg width="375" height="180" viewBox="0 0 375 180" fill="none" xmlns="http://www.w3.org/2000/svg">
<g filter="url(#filter0_d_697_4047)">
<path d="M36.0832 -45.5555C26.9194 -59.5885 18.4479 -72.5751 9.66953 -86.0366C21.1674 -102.325 45.7866 -107.434 62.9361 -94.8999C71.4691 -88.6517 78.8574 -80.5671 85.9296 -72.5144C100.732 -55.6326 118.801 -47.0282 140.802 -47.3438C158.217 -47.5915 172.596 -41.2246 184.174 -27.6274C196.463 -13.1892 212.163 -5.68262 230.692 -3.39177C251.747 -0.815464 270.154 8.23736 286.657 22.2149C300.676 34.0773 315.601 44.8481 333.313 58.5932C319.031 62.5009 305.9 68.1819 292.378 69.3268C263.877 71.7352 237.483 78.5873 215.451 97.6844C209.746 102.638 204.379 108.721 200.843 115.403C190.412 135.113 173.617 143.944 153.18 140.247C136.71 137.277 119.773 131.006 105.568 121.964C89.712 111.898 88.4912 92.8419 98.9755 79.5566C107.929 68.2165 138.172 59.0919 146.608 69.4717C157.559 82.9462 145.981 91.1214 138.542 90.9891C134.46 90.9306 128.294 87.1409 124.072 86.6837C118.532 112.184 145.371 112.24 155.821 108.063C166.81 103.674 172.053 94.6791 170.703 82.473C170.23 78.2245 168.204 74.1735 165.542 65.7393C175.205 66.3038 210.05 91.7535 238.771 44.6098C234.723 43.4898 201.21 50.5378 177.664 12.0926C164.242 -7.34142 146.837 -16.5885 124.472 -17.7593C110.735 -18.4703 99.9255 -24.2095 90.9129 -35.2985C72.6755 -57.7052 60.4055 -59.6283 36.0832 -45.5555Z" fill="url(#paint0_linear_697_4047)"/>
<path d="M-184.171 -18.8172C-171.914 -28.1365 -159.234 -35.638 -145.373 -33.6721C-119.63 -29.9997 -98.5196 -39.7831 -79.5335 -60.1945C-65.3403 -75.4707 -45.9494 -84.4816 -23.7725 -82.4721C-3.2363 -80.5991 15.767 -59.0024 15.1121 -38.0359C14.6936 -24.8256 7.89223 -15.5749 -3.23138 -9.30608C-12.2841 -4.18827 -40.7695 3.72399 -42.7463 -22.0055C-41.0121 -31.3256 -33.4218 -34.2842 -28.9201 -34.7157C-18.282 -35.7089 -16.174 -24.2247 -11.1357 -24.1581C-9.8898 -24.1502 -10.8712 -46.6432 -22.3669 -49.1387C-43.7354 -53.7879 -62.9671 -37.5725 -51.7795 -7.06446C-60.1177 -5.51285 -90.1001 -8.10591 -105.932 1.65004C-103.706 7.08191 -101.537 12.508 -99.2228 17.9193C-87.9571 44.1754 -67.1703 53.203 -40.768 51.9427C-16.8101 50.7899 2.643 59.1499 19.7126 77.2968C37.6832 96.4224 47.4116 98.2361 77.2498 96.466C79.3832 106.651 81.4879 116.833 83.8487 128.077C66.2904 145.054 28.8782 146.914 6.8005 130.361C0.593519 125.709 -5.33027 120.464 -10.6387 114.809C-25.9774 98.435 -43.3773 88.1234 -66.473 88.3578C-81.0388 88.5095 -93.5307 81.4462 -101.905 68.6765C-108.077 59.2655 -114.421 49.8371 -119.227 39.7066C-132.151 12.5134 -141.968 7.70303 -184.171 -18.8172Z" fill="url(#paint1_linear_697_4047)"/>
<path d="M-85.5887 8.44304C-65.9491 7.94736 -43.4717 2.79893 -32.2061 7.28274C-9.44742 16.303 20.7607 -4.48045 33.8225 -24.1015C43.7541 -39.0403 66.8383 -42.8256 80.3254 -30.5143C85.6999 -25.6214 88.5131 -6.87728 118.988 -3.6131C134.326 -1.97083 146.589 2.05186 157.581 13.0456C170.175 25.6215 193 51.6285 215.627 55.8135C199.948 68.1585 165.424 53.3911 148.306 51.2135C124.047 48.1353 100.592 52.8593 84.58 77.0921C80.6459 83.0242 65.2305 86.9651 57.4344 82.9214C42.1483 74.9835 27.186 65.9838 13.3826 55.6519C0.311902 45.8972 -12.1375 35.9983 -29.1941 36.4598C-50.9908 37.092 -76.5055 36.1347 -85.5887 8.44304Z" fill="url(#paint2_linear_697_4047)"/>
<path d="M-83.8415 12.998C-68.2 15.8247 -11.5134 15.6794 7.75556 10.0877C22.4754 5.81014 36.0905 3.58015 46.0288 -10.7663C53.5833 -21.686 72.6102 -33.1891 82.4436 -23.8805C86.3576 -20.2005 86.3137 2.75064 108.853 5.5956C120.208 7.04148 132.043 4.6017 140.051 12.897C149.201 22.4025 170.482 42.1297 187.175 45.5362C175.416 54.4621 136.669 45.9524 114.394 41.389C96.6194 37.7545 96.4081 50.2463 84.2373 67.946C81.2525 72.2881 68.8458 78.3086 64.3935 73.4796C40.9455 47.9715 33.6714 61.3453 23.5673 53.4885C14.005 46.0711 9.82551 44.7899 -1.07992 38.1535C-27.4582 22.0516 -63.6015 43.4171 -83.8415 12.998Z" fill="url(#paint3_linear_697_4047)"/>
<path d="M80.6794 113.793C80.6794 113.793 39.4556 133.905 22.0337 112.794C4.58054 91.7089 -33.9279 70.0594 -52.616 72.9589C-71.3041 75.8583 -102.628 52.9249 -113.167 23.9617C-124.807 -8.01214 -156.744 -18.1691 -156.744 -18.1691C-156.744 -18.1691 -100.453 -22.7917 -78.777 -36.0972C-72.4088 -40.0078 -47.3011 -80.2402 -18.2384 -64.3397C9.18969 -49.3147 -8.97834 -26.6314 -11.0747 -24.1814C-10.1557 -26.4253 -11.6562 -46.6043 -22.4986 -48.9449C-43.8646 -53.6234 -63.0989 -37.3786 -51.9112 -6.87061C-60.2469 -5.34834 -90.2318 -7.91207 -106.064 1.84388C-103.835 7.24643 -101.669 12.7018 -99.352 18.0838C-88.115 44.337 -67.3282 53.3646 -40.9259 52.1043C-16.968 50.9515 2.48758 59.2822 19.5547 77.4584C37.5278 96.5547 47.2562 98.3683 77.0944 96.5982L80.6794 113.793Z" fill="url(#paint4_linear_697_4047)"/>
<path d="M79.2629 107.024C79.2629 107.024 43.98 117.442 27.942 103.453C7.37316 85.5429 -34.3955 54.3336 -53.0836 57.2331C-71.7717 60.1325 -97.9845 36.0898 -103.829 21.8901C-106.801 14.6965 -115.376 -6.13987 -115.376 -6.13987C-91.3726 -18.2038 -57.6284 -11.177 -57.6284 -11.177C-66.9923 -26.9164 -52.3509 -56.0804 -27.1947 -53.3254C-6.83518 -51.0857 -8.97791 -26.661 -11.0742 -24.2109C-10.1553 -26.4549 -11.6558 -46.6338 -22.4982 -48.9744C-43.8642 -53.653 -63.0984 -37.4082 -51.9108 -6.90018C-60.2465 -5.3779 -90.2314 -7.94163 -106.063 1.81432C-103.835 7.21687 -101.669 12.6723 -99.3516 18.0542C-88.1146 44.3074 -67.3278 53.335 -40.9255 52.0748C-16.9676 50.922 2.48801 59.2527 19.5551 77.4289C37.5282 96.5252 47.2566 98.3388 77.0948 96.5687L79.2629 107.024Z" fill="url(#paint5_linear_697_4047)"/>
<path d="M263.371 69.5531C242.82 84.5996 189.786 85.4107 189.786 85.4107C189.786 85.4107 197.601 91.9116 181.956 111.241C153.648 146.239 115.001 123.185 116.683 102.737C117.821 88.9191 124.045 86.68 124.045 86.68C120.35 112.959 145.275 112.023 155.724 107.845C166.717 103.426 171.957 94.4614 170.607 82.2553C170.161 78.039 168.137 73.9587 165.475 65.5245C175.109 66.0861 209.954 91.5357 238.704 44.395C234.655 43.2749 201.143 50.323 177.597 11.8778C164.175 -7.55622 146.77 -16.8033 124.405 -17.9741C110.667 -18.6851 99.8582 -24.4243 90.8168 -35.5162C72.603 -57.8613 60.3644 -59.8109 36.1384 -45.8466L25.9554 -61.1661L25.0325 -62.5612C25.0325 -62.5612 44.0505 -91.0452 73.4134 -65.8847C102.748 -40.7271 110.424 -30.2763 155.054 -28.4479C186.658 -27.1697 199.177 9.38958 226.825 23.5494C253.696 37.3051 283.31 23.3837 283.31 23.3837C283.31 23.3837 283.948 54.5389 263.371 69.5531Z" fill="url(#paint6_linear_697_4047)"/>
<path d="M213.869 76.106C191.839 88.8135 169.925 70.7084 169.925 70.7084C169.925 70.7084 178.823 91.1633 169.266 103.448C156.678 119.597 122.711 118.168 121.079 103.863C119.519 90.0672 124.047 86.6507 124.047 86.6507C120.352 112.93 145.277 111.993 155.727 107.816C166.719 103.397 171.959 94.4321 170.61 82.226C170.163 78.0097 168.139 73.9294 165.477 65.4952C175.111 66.0568 209.957 91.5064 238.706 44.3656C234.658 43.2456 201.145 50.2937 177.599 11.8484C164.177 -7.58557 146.772 -16.8327 124.407 -18.0034C110.67 -18.7144 99.8604 -24.4536 90.819 -35.5456C72.6052 -57.8907 60.3665 -59.8402 36.1406 -45.876L31.0597 -53.4903C31.0597 -53.4903 40.5986 -72.9357 69.1078 -59.014C86.0193 -50.7635 94.4701 -20.1186 139.09 -18.1728C183.133 -16.256 186.105 28.1222 217.257 36.9572C246.175 45.1517 257.588 37.5514 257.588 37.5514C257.588 37.5514 237.73 62.3414 213.869 76.106Z" fill="url(#paint7_linear_697_4047)"/>
<path d="M-40.5192 16.9127C-31.6579 16.6861 16.4431 14.2513 21.5177 16.2444C31.7742 20.3302 45.4286 10.9453 51.3272 2.07655C55.8234 -4.65647 73.6194 -13.326 79.719 -7.76802C82.1378 -5.57061 76.0207 9.84323 89.7495 11.3225C96.6727 12.0533 109.646 10.2021 113.513 16.096C123.461 31.1254 148.798 32.1238 159.012 34.0162C151.948 39.6017 120.223 36.7138 112.51 35.7256C101.558 34.3205 89.7735 41.5281 83.8874 53.2676C78.6378 63.6812 70.0673 62.2215 66.3189 60.984C29.8255 49.2119 43.0204 36.7631 22.9012 29.4006C13.5972 26.0325 -36.4106 29.3983 -40.5192 16.9127Z" fill="url(#paint8_linear_697_4047)"/>
</g>
<defs>
<filter id="filter0_d_697_4047" x="-184.171" y="-101.901" width="558.417" height="281.82" filterUnits="userSpaceOnUse" color-interpolation-filters="sRGB">
<feFlood flood-opacity="0" result="BackgroundImageFix"/>
<feColorMatrix in="SourceAlpha" type="matrix" values="0 0 0 0 0 0 0 0 0 0 0 0 0 0 0 0 0 0 127 0" result="hardAlpha"/>
<feOffset dx="31.4144" dy="28.5585"/>
<feGaussianBlur stdDeviation="4.75975"/>
<feComposite in2="hardAlpha" operator="out"/>
<feColorMatrix type="matrix" values="0 0 0 0 0 0 0 0 0 0 0 0 0 0 0 0 0 0 0.5 0"/>
<feBlend mode="normal" in2="BackgroundImageFix" result="effect1_dropShadow_697_4047"/>
<feBlend mode="normal" in="SourceGraphic" in2="effect1_dropShadow_697_4047" result="shape"/>
</filter>
<linearGradient id="paint0_linear_697_4047" x1="233.809" y1="112.89" x2="66.6227" y2="-117.684" gradientUnits="userSpaceOnUse">
<stop stop-color="#E5C465"/>
<stop offset="0.3016" stop-color="#CC8F12"/>
<stop offset="0.5132" stop-color="#E9CE74"/>
<stop offset="0.7989" stop-color="#CC8F12"/>
<stop offset="1" stop-color="#E6C668"/>
</linearGradient>
<linearGradient id="paint1_linear_697_4047" x1="-127.854" y1="-91.3648" x2="52.6682" y2="131.585" gradientUnits="userSpaceOnUse">
<stop stop-color="#CF961F"/>
<stop offset="0.2037" stop-color="#E5C465"/>
<stop offset="0.418" stop-color="#CC8F12"/>
<stop offset="0.5767" stop-color="#E9CE74"/>
<stop offset="0.7989" stop-color="#CC8F12"/>
<stop offset="1" stop-color="#E6C668"/>
</linearGradient>
<linearGradient id="paint2_linear_697_4047" x1="17.9984" y1="-53.0732" x2="98.5885" y2="90.2098" gradientUnits="userSpaceOnUse">
<stop stop-color="#E5C465"/>
<stop offset="0.5026" stop-color="#CC8F12"/>
<stop offset="1" stop-color="#E9CE74"/>
</linearGradient>
<linearGradient id="paint3_linear_697_4047" x1="-53.8903" y1="-16.2263" x2="189.601" y2="56.1009" gradientUnits="userSpaceOnUse">
<stop stop-color="#CF961F"/>
<stop offset="0.2037" stop-color="#E5C465"/>
<stop offset="0.418" stop-color="#CC8F12"/>
<stop offset="0.5767" stop-color="#E9CE74"/>
<stop offset="0.7989" stop-color="#CC8F12"/>
<stop offset="1" stop-color="#E6C668"/>
</linearGradient>
<linearGradient id="paint4_linear_697_4047" x1="-81.8071" y1="-50.1408" x2="18.4098" y2="157.947" gradientUnits="userSpaceOnUse">
<stop stop-color="#CF961F"/>
<stop offset="0.2037" stop-color="#E5C465"/>
<stop offset="0.418" stop-color="#CC8F12"/>
<stop offset="0.5767" stop-color="#E9CE74"/>
<stop offset="0.7989" stop-color="#CC8F12"/>
<stop offset="1" stop-color="#E6C668"/>
</linearGradient>
<linearGradient id="paint5_linear_697_4047" x1="-78.4284" y1="-36.0595" x2="53.9941" y2="127.486" gradientUnits="userSpaceOnUse">
<stop stop-color="#AF7714"/>
<stop offset="0.5397" stop-color="#D39C37"/>
<stop offset="1" stop-color="#AF7714"/>
</linearGradient>
<linearGradient id="paint6_linear_697_4047" x1="111.37" y1="-134.646" x2="223.276" y2="160.928" gradientUnits="userSpaceOnUse">
<stop stop-color="#CF961F"/>
<stop offset="0.2037" stop-color="#E5C465"/>
<stop offset="0.418" stop-color="#CC8F12"/>
<stop offset="0.5767" stop-color="#E9CE74"/>
<stop offset="0.7989" stop-color="#CC8F12"/>
<stop offset="1" stop-color="#E6C668"/>
</linearGradient>
<linearGradient id="paint7_linear_697_4047" x1="104.318" y1="-115.505" x2="203.13" y2="145.484" gradientUnits="userSpaceOnUse">
<stop stop-color="#AF7714"/>
<stop offset="0.5397" stop-color="#D39C37"/>
<stop offset="1" stop-color="#AF7714"/>
</linearGradient>
<linearGradient id="paint8_linear_697_4047" x1="77.6926" y1="-6.14332" x2="43.6432" y2="49.1933" gradientUnits="userSpaceOnUse">
<stop stop-color="#AF7714"/>
<stop offset="0.5397" stop-color="#D39C37"/>
<stop offset="1" stop-color="#AF7714"/>
</linearGradient>
</defs>
</svg>
