<svg width="189" height="384" viewBox="0 0 189 384" fill="none" xmlns="http://www.w3.org/2000/svg">
<path fill-rule="evenodd" clip-rule="evenodd" d="M187.976 20.2235C187.394 22.0503 185.291 22.9201 181.673 22.8308C174.26 22.6453 162.461 32.1113 153.679 45.2872C145.552 57.4801 142.702 64.1382 138.54 80.6584C135.113 94.2642 131.789 98.4406 125.039 97.6243C121.153 97.1543 120.642 96.3391 120.406 90.2515C120.202 84.9862 120.746 83.1598 122.766 82.3319C124.21 81.7417 126.259 80.0241 127.319 78.5172C129.979 74.7322 134.121 62.7799 132.515 63.5195C131.794 63.8521 130.459 66.7039 129.547 69.8591C127.008 78.6309 118.473 84.8421 119.391 77.2492C119.933 72.7688 130 59.1787 132.551 59.4855C133.655 59.6175 134.757 58.1025 134.997 56.1189C135.602 51.1157 158.282 27.9271 168.897 21.458C175.286 17.566 179.159 16.3098 183.247 16.8043C187.712 17.3443 188.671 18.0378 187.976 20.2235Z" fill="url(#paint0_linear_704_3297)"/>
<path fill-rule="evenodd" clip-rule="evenodd" d="M117.721 82.2712C118.905 90.6094 116.605 100.928 112.694 104.829C108.569 108.943 104.978 109.424 103.839 106.013C103.45 104.847 103.143 106.824 103.155 110.407C103.168 113.99 102.952 119.458 102.676 122.558C102.232 127.548 102.357 127.752 103.768 124.336C105.537 120.054 115.358 114.324 119.974 114.883C126.626 115.687 120.011 132.965 111.58 136.805C108.626 138.152 107.098 139.363 108.186 139.497C109.275 139.632 112.674 137.994 115.74 135.854C120.732 132.372 121.458 130.972 122.676 122.449C124.217 111.673 123.237 111.072 111.281 115.461C105.171 117.703 105.056 117.687 104.623 114.511C104.303 112.162 105.528 110.778 109.116 109.439C111.83 108.428 115.32 105.732 116.871 103.452C118.734 100.713 121.148 99.359 123.977 99.4651C126.332 99.5546 129.646 99.0877 131.34 98.4282C134.146 97.3365 134.381 98.3287 133.975 109.563C133.187 131.407 132.712 133.165 126.29 138.032C123.088 140.46 117.809 143.233 114.56 144.195C111.311 145.158 109.623 146.09 110.809 146.269C114.686 146.852 124.514 142.783 128.269 139.035C130.292 137.019 132.22 135.718 132.555 136.146C132.891 136.573 132.655 145.301 132.034 155.542C131.016 172.299 130.48 174.871 126.681 181.257C122.647 188.038 113.991 193.907 108.912 193.307C106.274 192.996 102.514 188.39 103.967 187.251C105.527 186.028 101.962 181.077 99.2879 180.754C98.0321 180.602 94.9112 182.121 92.3492 184.131C87.8976 187.624 87.6581 188.379 86.908 201.296C86.2187 213.144 85.707 215.1 82.7548 217.188C78.8934 219.919 78.7861 219.837 77.2877 213.094C76.6008 210.001 75.9896 209.188 75.6939 210.974C75.4312 212.567 75.7982 215.372 76.5118 217.208C77.4976 219.74 76.9893 221.616 74.4076 224.986C72.5352 227.429 70.4483 229.36 69.7699 229.278C69.0898 229.196 68.1068 225.753 67.5823 221.626C67.0595 217.499 66.227 214.439 65.7326 214.827C65.2382 215.215 65.5891 219.337 66.5108 223.987C68.1327 232.171 65.7989 248.333 63.0419 247.999C61.3868 247.799 57.7267 236.204 56.3642 226.843C54.044 210.896 60.7797 176.409 68.9941 162.175C71.1557 158.43 71.6625 158.277 74.1268 160.626C76.7796 163.152 76.7381 163.537 72.7393 173.416C70.4719 179.019 69.0302 184.131 69.5363 184.776C70.0409 185.422 70.6468 184.569 70.8802 182.881C71.1138 181.192 73.1182 176.083 75.3342 171.524L79.3647 163.239L75.7236 159.25L72.0824 155.262L76.0055 146.895C82.5823 132.868 100.264 102.731 101.807 102.918C102.606 103.014 103.465 101.469 103.716 99.4858C103.966 97.5023 107.094 91.9355 110.668 87.116C116.543 79.1919 117.217 78.7281 117.721 82.2712Z" fill="url(#paint1_linear_704_3297)"/>
<path fill-rule="evenodd" clip-rule="evenodd" d="M100.191 142.77C99.3429 149.78 93.077 159.194 87.5698 161.735C84.5438 163.13 83.3478 164.308 84.7801 164.485C88.1947 164.906 94.2585 159.523 98.1368 152.628C100.4 148.605 102.401 146.986 104.927 147.135L108.511 147.346L105.017 146.216C101.577 145.103 100.485 140.295 103.764 140.692C104.689 140.804 105.087 140.107 104.647 139.142C103.371 136.347 100.705 138.518 100.191 142.77Z" fill="url(#paint2_linear_704_3297)"/>
<path fill-rule="evenodd" clip-rule="evenodd" d="M104.185 160.783C96.4937 167.897 94.4399 169.471 89.3667 172.149C82.19 175.937 77.2581 185.311 76.0295 197.5L74.9794 207.916L77.4832 195.831C80.3858 181.834 86.5316 173.058 95.1043 170.672C105.861 167.678 115.38 178.508 108.818 186.275C106.991 188.437 106.552 189.837 107.656 189.971C108.633 190.089 110.513 188.125 111.831 185.606C113.149 183.086 115.48 180.789 117.011 180.501C120.563 179.831 124.793 172.399 124.454 167.421C124.238 164.245 124.055 164.413 123.39 168.399C122.528 173.559 117.813 179.845 115.056 179.512C114.131 179.4 112.174 177.338 110.706 174.931C109.239 172.523 107.191 170.439 106.154 170.301C105.119 170.161 103.325 169.277 102.167 168.335C97.3243 164.39 113.202 153.634 119.945 156.292C122.804 157.42 124.027 156.191 122.27 153.955C120.604 151.837 109.205 156.14 104.185 160.783Z" fill="url(#paint3_linear_704_3297)"/>
<path fill-rule="evenodd" clip-rule="evenodd" d="M65.2798 206.484C65.2179 210.299 65.915 207.256 66.8261 199.722C67.7373 192.189 67.7857 189.067 66.9364 192.787C66.0851 196.507 65.3399 202.669 65.2798 206.484Z" fill="url(#paint4_linear_704_3297)"/>
<path fill-rule="evenodd" clip-rule="evenodd" d="M51.7391 193.224C51.6965 193.845 50.4534 197.864 48.9776 202.153C46.8289 208.394 46.565 212.027 47.6557 220.351C48.405 226.07 49.625 231.525 50.3667 232.472C52.4102 235.08 51.0116 242.561 48.1339 244.417C46.0953 245.732 45.1012 245.327 43.1434 242.386C40.0594 237.755 37.2243 237.366 35.4193 241.329C33.816 244.847 30.9966 244.972 28.0316 241.655C26.911 240.402 27.1229 241.122 28.5026 243.255C29.9956 245.565 30.7721 250.08 30.422 254.412C30.0417 259.128 30.9173 263.601 32.9142 267.119C36.0529 272.655 35.099 280.313 31.3265 279.857C27.7382 279.423 17.5604 264.278 16.6136 257.962C15.282 249.078 21.4381 229.544 23.895 234.86C24.3727 235.893 25.0475 234.398 25.3938 231.534C26.1021 225.679 40.181 203.019 47.2152 196.415C49.7463 194.038 51.7819 192.602 51.7391 193.224Z" fill="url(#paint5_linear_704_3297)"/>
<path fill-rule="evenodd" clip-rule="evenodd" d="M105.837 212.47C103.208 214.918 100.969 217.655 100.861 218.552C100.752 219.45 97.0705 222.914 92.677 226.252C82.7048 233.83 78.2596 242.768 80.5183 250.703C81.975 255.817 81.2256 266.252 79.2919 267.764C78.7871 268.159 75.5074 264.901 72.0011 260.525C64.5742 251.256 64.4054 245.555 71.2236 234.357C77.5715 223.933 84.0334 218.132 95.5065 212.553C108.436 206.268 112.531 206.235 105.837 212.47Z" fill="url(#paint6_linear_704_3297)"/>
<path fill-rule="evenodd" clip-rule="evenodd" d="M132.015 216.582C128.952 222.405 127.022 242.255 128.51 252.637C130.25 264.772 129.405 270.434 125.036 275.964C121.468 280.48 109.453 287.249 108.089 285.512C107.708 285.027 107.288 281.967 107.155 278.71C106.97 274.174 107.46 272.854 109.252 273.071C112.917 273.514 119.418 267.206 119.966 262.673C120.239 260.413 119.692 255.845 118.75 252.52C117.808 249.196 117.259 244.65 117.529 242.418C118.177 237.059 116.573 237.109 109.869 242.659C102.29 248.935 99.9964 252.692 99.0702 260.351C98.105 268.331 95.4724 268.453 93.2532 260.619C90.575 251.166 92.0778 246.188 100.601 236.271C107.515 228.227 129.393 212.094 132.826 212.51C133.514 212.593 133.151 214.425 132.015 216.582Z" fill="url(#paint7_linear_704_3297)"/>
<path fill-rule="evenodd" clip-rule="evenodd" d="M98.7787 228.428C99.1713 231.533 97.9942 234.305 94.582 238.319C91.974 241.385 88.7322 246.156 87.3777 248.918C84.4132 254.972 82.4834 255.138 82.088 249.375C81.5914 242.146 85.5198 234.082 92.0191 228.986L98.2344 224.113L98.7787 228.428Z" fill="url(#paint8_linear_704_3297)"/>
<path fill-rule="evenodd" clip-rule="evenodd" d="M116.698 251.261C118.742 263.569 118.496 265.256 114.157 268.681C108.592 273.073 105.125 271.861 106.988 266.175C108.441 261.739 108.29 261.514 104.225 262.033C100.04 262.567 99.9715 262.426 101.616 256.713C103.538 250.035 107.722 244.46 112.101 242.743C114.69 241.728 115.304 242.864 116.698 251.261Z" fill="url(#paint9_linear_704_3297)"/>
<path fill-rule="evenodd" clip-rule="evenodd" d="M55.8148 244.251C56.9366 246.392 59.7757 250.936 62.1243 254.348C64.4713 257.759 66.3279 261.092 66.2513 261.753C66.1731 262.413 67.0738 263.071 68.251 263.213C71.1254 263.561 87.6306 284.936 91.3561 293.134C95.3393 301.903 94.3934 308.144 88.3341 313.082C85.6551 315.265 82.5121 316.936 81.3494 316.795C78.4862 316.449 79.1489 312.524 82.4253 310.426C86.0313 308.116 86.3468 303.467 83.4641 295.122C80.6163 286.881 72.6569 276.364 72.1897 280.226C71.8387 283.128 63.2448 290.232 60.4895 289.898C59.4508 289.773 57.4373 288.588 56.0157 287.266C53.6231 285.041 53.9119 284.464 59.911 279.497C64.2142 275.934 66.5174 272.683 66.7652 269.824C67.1376 265.529 67.1326 265.53 65.1272 270.209C64.0211 272.789 60.6565 276.737 57.6501 278.98L52.1817 283.058L49.044 279.078C46.3805 275.703 46.2638 274.655 48.2728 272.175C51.8197 267.8 52.1957 259.895 49.166 253.388C46.4827 247.623 46.4871 247.586 50.1224 243.98L53.7744 240.358L55.8148 244.251Z" fill="url(#paint10_linear_704_3297)"/>
<path fill-rule="evenodd" clip-rule="evenodd" d="M41.874 244.36C49.7509 255.323 51.7717 266.889 46.4156 270.34C44.9682 271.274 43.8486 271.408 43.9284 270.641C44.0065 269.876 43.5233 268.093 42.8528 266.682C41.8086 264.482 41.2433 264.528 38.8933 267.012C36.1557 269.905 36.151 269.905 34.1719 266.433C31.2625 261.331 31.1378 254.324 33.8344 247.636C36.8684 240.112 38.3793 239.497 41.874 244.36Z" fill="url(#paint11_linear_704_3297)"/>
<path fill-rule="evenodd" clip-rule="evenodd" d="M91.2366 260.164C92.6059 267.732 92.4676 270.242 90.4934 273.638C87.1882 279.316 87.3182 279.246 84.8509 276.644C82.273 273.925 83.1694 265.388 86.9293 256.834L89.5537 250.863L91.2366 260.164Z" fill="url(#paint12_linear_704_3297)"/>
<path fill-rule="evenodd" clip-rule="evenodd" d="M104.904 274.756C105.283 280.324 106.986 289.807 108.687 295.829C111.358 305.281 111.518 309.09 109.857 323.686C108.106 339.048 107.442 341.309 102.584 348.432C95.5629 358.724 97.0045 358.69 104.589 348.386C109.671 341.481 116.219 337.454 118.219 340.004C119.408 341.52 110.256 352.89 105.174 356.211C98.7979 360.378 100.492 361.512 107.099 357.498C111.263 354.968 119.821 343.236 120.283 339.421C120.417 338.313 118.685 337.846 115.553 338.148C111.298 338.555 110.667 338.159 111.015 335.287C111.264 333.225 112.453 332.078 114.131 332.281C116.559 332.575 116.56 332.344 114.147 330.09C111.261 327.393 112.679 323.971 116.493 324.432C117.766 324.586 120.424 323.443 122.402 321.893C126.494 318.686 128.46 308.026 126.88 297.623C125.787 290.42 122.536 289.224 115.564 293.459L111.025 296.214L109.537 292.393C108.274 289.148 108.535 288.374 111.273 287.263C115.452 285.569 126.542 276.869 129.206 273.195C130.941 270.802 131.63 272.746 133.429 285.116C136.853 308.641 132.967 332.244 123.057 348.109C111.493 366.628 98.6262 373.199 77.846 371.196C70.5834 370.497 61.7865 370.544 58.2973 371.302C54.3583 372.156 44.6564 371.772 32.7077 370.285C12.263 367.742 3.10904 364.482 6.74856 361.042C8.18239 359.686 8.30991 358.605 7.20541 357.198C3.87359 352.952 8.48807 352.044 23.9076 353.909C50.3021 357.101 67.4198 352.517 74.4903 340.361C76.8169 336.362 78.8589 331.943 79.0284 330.541C79.3159 328.165 87.4568 324.859 88.8009 326.574C90.2044 328.362 83.4782 340.391 79.1917 343.756C75.2215 346.875 75.005 347.372 77.6991 347.186C82.0877 346.88 89.8744 335.089 90.8133 327.326C91.5522 321.217 91.4355 321.024 88.333 323.214C84.7265 325.762 79.605 325.774 79.9122 323.234C80.0206 322.338 83.7509 318.874 88.2001 315.537C96.1044 309.611 96.3025 309.561 96.7843 313.372C97.7539 321.036 93.5313 338.585 89.051 345.518C85.1335 351.58 85.047 351.945 88.2432 348.926C96.1114 341.496 100.685 320.924 97.6674 306.528C96.686 301.841 94.1259 294.323 91.979 289.824C89.2648 284.133 88.5311 280.629 89.5681 278.314C91.6352 273.701 97.762 267.14 101.279 265.773C103.828 264.783 104.305 265.965 104.904 274.756Z" fill="url(#paint13_linear_704_3297)"/>
<path fill-rule="evenodd" clip-rule="evenodd" d="M17.3196 267.257C19.197 271.582 23.0521 276.453 26.7289 279.149C30.1545 281.659 33.1619 283.481 33.4129 283.197C33.6622 282.913 35.3897 279.199 37.2495 274.944L40.6296 267.208L44.3316 274.569C46.6187 279.116 52.7302 285.985 60.3134 292.535C70.4388 301.279 73.1364 304.666 75.685 311.83C79.3664 322.176 78.6214 331.554 73.546 338.779C64.6627 351.421 47.9544 355.701 22.5905 351.835C8.89964 349.748 7.71152 349.298 8.06803 346.35C8.41853 343.452 9.87765 343.21 23.025 343.866C41.6111 344.796 50.6907 343.189 58.208 337.641C63.2721 333.902 64.3478 332.09 65.0756 326.073C66.8436 311.454 51.9289 302.628 44.4176 313.849C42.3603 316.923 42.1299 316.93 40.1007 313.982C38.9204 312.269 36.6828 308.149 35.1273 304.825C33.3322 300.991 32.5157 300.148 32.8951 302.518C34.0856 309.964 26.5223 304.286 23.2103 295.248C20.0734 286.688 20.1393 286.466 25.2702 288.274C29.0987 289.622 28.9957 289.383 24.315 286.073C21.4271 284.031 18.864 282.441 18.6177 282.538C18.3729 282.637 18.9076 286.025 19.806 290.07C21.6347 298.297 27.5163 307.162 31.4631 307.639C32.89 307.812 36.2019 310.778 38.8231 314.231C42.8546 319.542 43.1084 320.446 40.4686 320.096C29.2503 318.61 16.2746 302.733 13.6504 287.281C12.1521 278.462 11.9002 259.661 13.2821 259.828C13.754 259.885 15.571 263.228 17.3196 267.257Z" fill="url(#paint14_linear_704_3297)"/>
<path fill-rule="evenodd" clip-rule="evenodd" d="M97.349 290.391C102.427 300.465 103.085 304.868 100.134 309.056C97.9338 312.178 97.6424 311.992 91.2233 303.435C87.5729 298.569 83.6533 294.175 82.5124 293.674C81.1156 293.06 82.5245 291.033 86.8242 287.472L93.2102 282.183L97.349 290.391Z" fill="url(#paint15_linear_704_3297)"/>
<path fill-rule="evenodd" clip-rule="evenodd" d="M125.149 294.629C125.639 295.68 125.86 301.119 125.637 306.717C125.284 315.646 124.747 317.274 121.258 319.986C119.071 321.685 116.491 322.705 115.522 322.248C114.555 321.793 113.353 315.966 112.849 309.296C111.948 297.336 111.989 297.14 115.938 294.686C120.488 291.858 123.844 291.838 125.149 294.629Z" fill="url(#paint16_linear_704_3297)"/>
<path fill-rule="evenodd" clip-rule="evenodd" d="M30.5654 289.546C30.4641 290.383 31.0663 291.151 31.9034 291.252C32.7406 291.354 33.5084 290.751 33.6097 289.914C33.7109 289.077 33.1088 288.309 32.2716 288.208C31.4344 288.107 30.6666 288.709 30.5654 289.546Z" fill="url(#paint17_linear_704_3297)"/>
<path fill-rule="evenodd" clip-rule="evenodd" d="M31.7574 296.636C32.1359 298.007 32.5815 297.667 32.8932 295.767C33.1745 294.048 32.8945 293.033 32.2702 293.51C31.646 293.986 31.4144 295.394 31.7574 296.636Z" fill="url(#paint18_linear_704_3297)"/>
<path fill-rule="evenodd" clip-rule="evenodd" d="M77.3815 356.722C75.1018 359.163 75.1497 359.228 77.8991 357.432C80.7874 355.543 81.7874 354.257 80.4924 354.101C80.1667 354.061 78.7661 355.24 77.3815 356.722Z" fill="url(#paint19_linear_704_3297)"/>
<path fill-rule="evenodd" clip-rule="evenodd" d="M90.2002 360.439C87.4628 361.909 81.8548 364.566 77.7389 366.343C73.1638 368.32 71.88 369.338 74.4339 368.963C76.732 368.628 82.4012 366.32 87.031 363.837C91.6623 361.354 96.1989 359.914 97.113 360.636C98.1187 361.429 98.4069 361.164 97.8429 359.963C96.5928 357.295 95.9807 357.333 90.2002 360.439Z" fill="url(#paint20_linear_704_3297)"/>
<path fill-rule="evenodd" clip-rule="evenodd" d="M59.9 363.082C57.6641 363.784 57.3273 364.276 58.9096 364.529C60.2292 364.742 62.4833 364.308 63.9182 363.568C67.0977 361.927 64.5598 361.62 59.9 363.082Z" fill="url(#paint21_linear_704_3297)"/>
<path fill-rule="evenodd" clip-rule="evenodd" d="M51.1158 364.837C51.5472 365.456 52.8365 365.673 53.9787 365.318C55.2426 364.927 54.9347 364.485 53.194 364.193C51.619 363.929 50.6845 364.218 51.1158 364.837Z" fill="url(#paint22_linear_704_3297)"/>
<path fill-rule="evenodd" clip-rule="evenodd" d="M40.3675 365.049C41.4256 365.593 43.6312 365.885 45.269 365.698C46.9068 365.511 46.0409 365.067 43.345 364.711C40.6491 364.354 39.3093 364.506 40.3675 365.049Z" fill="url(#paint23_linear_704_3297)"/>
<path fill-rule="evenodd" clip-rule="evenodd" d="M17.1393 362.101C17.616 362.725 19.0232 362.957 20.2639 362.613C21.6368 362.235 21.2965 361.789 19.3967 361.478C17.6778 361.196 16.6626 361.476 17.1393 362.101Z" fill="url(#paint24_linear_704_3297)"/>
<defs>
<linearGradient id="paint0_linear_704_3297" x1="177.623" y1="22.8225" x2="156.107" y2="83.454" gradientUnits="userSpaceOnUse">
<stop offset="0.0336538" stop-color="#FED87F"/>
<stop offset="0.567045" stop-color="#DAA21C"/>
<stop offset="1" stop-color="#74560F"/>
</linearGradient>
<linearGradient id="paint1_linear_704_3297" x1="128.491" y1="94.8604" x2="70.5453" y2="201.884" gradientUnits="userSpaceOnUse">
<stop offset="0.0336538" stop-color="#FED87F"/>
<stop offset="0.567045" stop-color="#DAA21C"/>
<stop offset="1" stop-color="#74560F"/>
</linearGradient>
<linearGradient id="paint2_linear_704_3297" x1="105.696" y1="140.383" x2="98.9991" y2="160.496" gradientUnits="userSpaceOnUse">
<stop offset="0.0336538" stop-color="#FED87F"/>
<stop offset="0.567045" stop-color="#DAA21C"/>
<stop offset="1" stop-color="#74560F"/>
</linearGradient>
<linearGradient id="paint3_linear_704_3297" x1="118.423" y1="157.688" x2="104.215" y2="199.441" gradientUnits="userSpaceOnUse">
<stop offset="0.0336538" stop-color="#FED87F"/>
<stop offset="0.567045" stop-color="#DAA21C"/>
<stop offset="1" stop-color="#74560F"/>
</linearGradient>
<linearGradient id="paint4_linear_704_3297" x1="67.5266" y1="192.535" x2="63.0821" y2="193.638" gradientUnits="userSpaceOnUse">
<stop offset="0.0336538" stop-color="#FED87F"/>
<stop offset="0.567045" stop-color="#DAA21C"/>
<stop offset="1" stop-color="#74560F"/>
</linearGradient>
<linearGradient id="paint5_linear_704_3297" x1="50.4405" y1="199.739" x2="19.6269" y2="253.058" gradientUnits="userSpaceOnUse">
<stop offset="0.0336538" stop-color="#FED87F"/>
<stop offset="0.567045" stop-color="#DAA21C"/>
<stop offset="1" stop-color="#74560F"/>
</linearGradient>
<linearGradient id="paint6_linear_704_3297" x1="102.346" y1="211.948" x2="85.3651" y2="254.788" gradientUnits="userSpaceOnUse">
<stop offset="0.0336538" stop-color="#FED87F"/>
<stop offset="0.567045" stop-color="#DAA21C"/>
<stop offset="1" stop-color="#74560F"/>
</linearGradient>
<linearGradient id="paint7_linear_704_3297" x1="128.637" y1="217.812" x2="106.327" y2="267.663" gradientUnits="userSpaceOnUse">
<stop offset="0.0336538" stop-color="#FED87F"/>
<stop offset="0.567045" stop-color="#DAA21C"/>
<stop offset="1" stop-color="#74560F"/>
</linearGradient>
<linearGradient id="paint8_linear_704_3297" x1="96.8819" y1="226.331" x2="87.3625" y2="246.422" gradientUnits="userSpaceOnUse">
<stop offset="0.0336538" stop-color="#FED87F"/>
<stop offset="0.567045" stop-color="#DAA21C"/>
<stop offset="1" stop-color="#74560F"/>
</linearGradient>
<linearGradient id="paint9_linear_704_3297" x1="117.153" y1="245.125" x2="109.208" y2="265.002" gradientUnits="userSpaceOnUse">
<stop offset="0.0336538" stop-color="#FED87F"/>
<stop offset="0.567045" stop-color="#DAA21C"/>
<stop offset="1" stop-color="#74560F"/>
</linearGradient>
<linearGradient id="paint10_linear_704_3297" x1="91.4343" y1="250.486" x2="73.8695" y2="301.142" gradientUnits="userSpaceOnUse">
<stop offset="0.0336538" stop-color="#FED87F"/>
<stop offset="0.567045" stop-color="#DAA21C"/>
<stop offset="1" stop-color="#74560F"/>
</linearGradient>
<linearGradient id="paint11_linear_704_3297" x1="48.7363" y1="244.718" x2="41.1783" y2="264.576" gradientUnits="userSpaceOnUse">
<stop offset="0.0336538" stop-color="#FED87F"/>
<stop offset="0.567045" stop-color="#DAA21C"/>
<stop offset="1" stop-color="#74560F"/>
</linearGradient>
<linearGradient id="paint12_linear_704_3297" x1="92.5679" y1="253.347" x2="82.19" y2="268.755" gradientUnits="userSpaceOnUse">
<stop offset="0.0336538" stop-color="#FED87F"/>
<stop offset="0.567045" stop-color="#DAA21C"/>
<stop offset="1" stop-color="#74560F"/>
</linearGradient>
<linearGradient id="paint13_linear_704_3297" x1="118.451" y1="276.034" x2="96.4447" y2="357.214" gradientUnits="userSpaceOnUse">
<stop offset="0.0336538" stop-color="#FED87F"/>
<stop offset="0.567045" stop-color="#DAA21C"/>
<stop offset="1" stop-color="#74560F"/>
</linearGradient>
<linearGradient id="paint14_linear_704_3297" x1="72.2976" y1="273.899" x2="51.6048" y2="337.598" gradientUnits="userSpaceOnUse">
<stop offset="0.0336538" stop-color="#FED87F"/>
<stop offset="0.567045" stop-color="#DAA21C"/>
<stop offset="1" stop-color="#74560F"/>
</linearGradient>
<linearGradient id="paint15_linear_704_3297" x1="100.709" y1="285.235" x2="94.088" y2="304.821" gradientUnits="userSpaceOnUse">
<stop offset="0.0336538" stop-color="#FED87F"/>
<stop offset="0.567045" stop-color="#DAA21C"/>
<stop offset="1" stop-color="#74560F"/>
</linearGradient>
<linearGradient id="paint16_linear_704_3297" x1="124.985" y1="295.229" x2="115.668" y2="314.872" gradientUnits="userSpaceOnUse">
<stop offset="0.0336538" stop-color="#FED87F"/>
<stop offset="0.567045" stop-color="#DAA21C"/>
<stop offset="1" stop-color="#74560F"/>
</linearGradient>
<linearGradient id="paint17_linear_704_3297" x1="33.2666" y1="288.564" x2="32.641" y2="290.766" gradientUnits="userSpaceOnUse">
<stop offset="0.0336538" stop-color="#FED87F"/>
<stop offset="0.567045" stop-color="#DAA21C"/>
<stop offset="1" stop-color="#74560F"/>
</linearGradient>
<linearGradient id="paint18_linear_704_3297" x1="32.9209" y1="293.749" x2="31.4315" y2="296.112" gradientUnits="userSpaceOnUse">
<stop offset="0.0336538" stop-color="#FED87F"/>
<stop offset="0.567045" stop-color="#DAA21C"/>
<stop offset="1" stop-color="#74560F"/>
</linearGradient>
<linearGradient id="paint19_linear_704_3297" x1="80.2705" y1="354.466" x2="79.1894" y2="358.119" gradientUnits="userSpaceOnUse">
<stop offset="0.0336538" stop-color="#FED87F"/>
<stop offset="0.567045" stop-color="#DAA21C"/>
<stop offset="1" stop-color="#74560F"/>
</linearGradient>
<linearGradient id="paint20_linear_704_3297" x1="94.4311" y1="358.892" x2="92.2898" y2="368.927" gradientUnits="userSpaceOnUse">
<stop offset="0.0336538" stop-color="#FED87F"/>
<stop offset="0.567045" stop-color="#DAA21C"/>
<stop offset="1" stop-color="#74560F"/>
</linearGradient>
<linearGradient id="paint21_linear_704_3297" x1="64.1696" y1="362.315" x2="63.7378" y2="364.587" gradientUnits="userSpaceOnUse">
<stop offset="0.0336538" stop-color="#FED87F"/>
<stop offset="0.567045" stop-color="#DAA21C"/>
<stop offset="1" stop-color="#74560F"/>
</linearGradient>
<linearGradient id="paint22_linear_704_3297" x1="54.183" y1="364.408" x2="54.0012" y2="365.421" gradientUnits="userSpaceOnUse">
<stop offset="0.0336538" stop-color="#FED87F"/>
<stop offset="0.567045" stop-color="#DAA21C"/>
<stop offset="1" stop-color="#74560F"/>
</linearGradient>
<linearGradient id="paint23_linear_704_3297" x1="45.137" y1="365.004" x2="45.0242" y2="365.768" gradientUnits="userSpaceOnUse">
<stop offset="0.0336538" stop-color="#FED87F"/>
<stop offset="0.567045" stop-color="#DAA21C"/>
<stop offset="1" stop-color="#74560F"/>
</linearGradient>
<linearGradient id="paint24_linear_704_3297" x1="20.4766" y1="361.704" x2="20.2997" y2="362.718" gradientUnits="userSpaceOnUse">
<stop offset="0.0336538" stop-color="#FED87F"/>
<stop offset="0.567045" stop-color="#DAA21C"/>
<stop offset="1" stop-color="#74560F"/>
</linearGradient>
</defs>
</svg>
