<svg width="189" height="384" viewBox="0 0 189 384" fill="none" xmlns="http://www.w3.org/2000/svg">
<path fill-rule="evenodd" clip-rule="evenodd" d="M0.42705 20.2235C1.00851 22.0503 3.11206 22.9201 6.72927 22.8308C14.1423 22.6453 25.9412 32.1113 34.7239 45.2872C42.851 57.4801 45.7003 64.1382 49.8631 80.6584C53.29 94.2642 56.614 98.4406 63.3635 97.6243C67.2495 97.1543 67.761 96.3391 67.997 90.2515C68.2003 84.9862 67.6564 83.1598 65.6362 82.3319C64.1929 81.7417 62.1435 80.0241 61.0836 78.5172C58.4235 74.7322 54.2814 62.7799 55.888 63.5195C56.6085 63.8521 57.9436 66.7039 58.8553 69.8591C61.3942 78.6309 69.93 84.8421 69.0117 77.2492C68.4698 72.7688 58.4021 59.1787 55.852 59.4855C54.7472 59.6175 53.6456 58.1025 53.4057 56.1189C52.8006 51.1157 30.1202 27.9271 19.506 21.458C13.1169 17.566 9.24397 16.3098 5.15538 16.8043C0.690565 17.3443 -0.267958 18.0378 0.42705 20.2235Z" fill="url(#paint0_linear_704_3270)"/>
<path fill-rule="evenodd" clip-rule="evenodd" d="M70.6815 82.2712C69.498 90.6094 71.7971 100.928 75.709 104.829C79.8339 108.943 83.4249 109.424 84.5631 106.013C84.9526 104.847 85.26 106.824 85.2475 110.407C85.235 113.99 85.4504 119.458 85.7262 122.558C86.1702 127.548 86.0451 127.752 84.6345 124.336C82.8652 120.054 73.0448 114.324 68.4289 114.883C61.7763 115.687 68.3915 132.965 76.823 136.805C79.7768 138.152 81.3047 139.363 80.2161 139.497C79.1275 139.632 75.7285 137.994 72.6626 135.854C67.6704 132.372 66.9445 130.972 65.7266 122.449C64.1857 111.673 65.1659 111.072 77.1219 115.461C83.2317 117.703 83.347 117.687 83.7797 114.511C84.0994 112.162 82.8743 110.778 79.2869 109.439C76.5723 108.428 73.0829 105.732 71.5313 103.452C69.6687 100.713 67.2544 99.359 64.426 99.4651C62.0708 99.5546 58.7565 99.0877 57.0624 98.4282C54.2568 97.3365 54.022 98.3287 54.4272 109.563C55.2156 131.407 55.6902 133.165 62.1127 138.032C65.3143 140.46 70.5934 143.233 73.8423 144.195C77.0913 145.158 78.7792 146.09 77.5934 146.269C73.7161 146.852 63.8882 142.783 60.1332 139.035C58.1107 137.019 56.1829 135.718 55.8474 136.146C55.5117 136.573 55.7471 145.301 56.369 155.542C57.3868 172.299 57.9225 174.871 61.7216 181.257C65.7556 188.038 74.4114 193.907 79.4908 193.307C82.1285 192.996 85.8886 188.39 84.4359 187.251C82.8756 186.028 86.4411 181.077 89.1146 180.754C90.3704 180.602 93.4914 182.121 96.0534 184.131C100.505 187.624 100.744 188.379 101.495 201.296C102.184 213.144 102.696 215.1 105.648 217.188C109.509 219.919 109.616 219.837 111.115 213.094C111.802 210.001 112.413 209.188 112.709 210.974C112.971 212.567 112.604 215.372 111.891 217.208C110.905 219.74 111.413 221.616 113.995 224.986C115.867 227.429 117.954 229.36 118.633 229.278C119.313 229.196 120.296 225.753 120.82 221.626C121.343 217.499 122.176 214.439 122.67 214.827C123.164 215.215 122.813 219.337 121.892 223.987C120.27 232.171 122.604 248.333 125.361 247.999C127.016 247.799 130.676 236.204 132.038 226.843C134.359 210.896 127.623 176.409 119.408 162.175C117.247 158.43 116.74 158.277 114.276 160.626C111.623 163.152 111.665 163.537 115.663 173.416C117.931 179.019 119.372 184.131 118.866 184.776C118.362 185.422 117.756 184.569 117.522 182.881C117.289 181.192 115.284 176.083 113.068 171.524L109.038 163.239L112.679 159.25L116.32 155.262L112.397 146.895C105.82 132.868 88.1384 102.731 86.5956 102.918C85.7969 103.014 84.9379 101.469 84.6866 99.4858C84.437 97.5023 81.3081 91.9355 77.7343 87.116C71.8599 79.1919 71.1854 78.7281 70.6815 82.2712Z" fill="url(#paint1_linear_704_3270)"/>
<path fill-rule="evenodd" clip-rule="evenodd" d="M88.2119 142.77C89.0597 149.78 95.3256 159.194 100.833 161.735C103.859 163.13 105.055 164.308 103.623 164.485C100.208 164.906 94.1441 159.523 90.2658 152.628C88.0028 148.605 86.0017 146.986 83.4754 147.135L79.8919 147.346L83.3853 146.216C86.8259 145.103 87.9175 140.295 84.6387 140.692C83.7133 140.804 83.3159 140.107 83.7558 139.142C85.0312 136.347 87.6977 138.518 88.2119 142.77Z" fill="url(#paint2_linear_704_3270)"/>
<path fill-rule="evenodd" clip-rule="evenodd" d="M84.218 160.783C91.9089 167.897 93.9627 169.471 99.0359 172.149C106.213 175.937 111.145 185.311 112.373 197.5L113.423 207.916L110.919 195.831C108.017 181.834 101.871 173.058 93.2983 170.672C82.5414 167.678 73.0224 178.508 79.5844 186.275C81.4116 188.437 81.8508 189.837 80.7467 189.971C79.7692 190.089 77.8894 188.125 76.5719 185.606C75.2541 183.086 72.9227 180.789 71.392 180.501C67.8395 179.831 63.6092 172.399 63.9485 167.421C64.1643 164.245 64.3472 164.413 65.013 168.399C65.8746 173.559 70.5891 179.845 73.347 179.512C74.2717 179.4 76.2288 177.338 77.6969 174.931C79.1633 172.523 81.212 170.439 82.2489 170.301C83.284 170.161 85.0778 169.277 86.2353 168.335C91.0783 164.39 75.2008 153.634 68.4575 156.292C65.5989 157.42 64.3755 156.191 66.1327 153.955C67.7984 151.837 79.198 156.14 84.218 160.783Z" fill="url(#paint3_linear_704_3270)"/>
<path fill-rule="evenodd" clip-rule="evenodd" d="M123.123 206.484C123.185 210.299 122.488 207.256 121.576 199.722C120.665 192.189 120.617 189.067 121.466 192.787C122.317 196.507 123.063 202.669 123.123 206.484Z" fill="url(#paint4_linear_704_3270)"/>
<path fill-rule="evenodd" clip-rule="evenodd" d="M136.664 193.224C136.706 193.845 137.949 197.864 139.425 202.153C141.574 208.394 141.838 212.027 140.747 220.351C139.998 226.07 138.778 231.525 138.036 232.472C135.992 235.08 137.391 242.561 140.269 244.417C142.307 245.732 143.301 245.327 145.259 242.386C148.343 237.755 151.178 237.366 152.983 241.329C154.587 244.847 157.406 244.972 160.371 241.655C161.492 240.402 161.28 241.122 159.9 243.255C158.407 245.565 157.631 250.08 157.981 254.412C158.361 259.128 157.485 263.601 155.488 267.119C152.35 272.655 153.304 280.313 157.076 279.857C160.664 279.423 170.842 264.278 171.789 257.962C173.121 249.078 166.964 229.544 164.508 234.86C164.03 235.893 163.355 234.398 163.009 231.534C162.301 225.679 148.222 203.019 141.187 196.415C138.656 194.038 136.621 192.602 136.664 193.224Z" fill="url(#paint5_linear_704_3270)"/>
<path fill-rule="evenodd" clip-rule="evenodd" d="M82.566 212.47C85.1944 214.918 87.4335 217.655 87.542 218.552C87.6505 219.45 91.3322 222.914 95.7256 226.252C105.698 233.83 110.143 242.768 107.884 250.703C106.428 255.817 107.177 266.252 109.111 267.764C109.615 268.159 112.895 264.901 116.402 260.525C123.828 251.256 123.997 245.555 117.179 234.357C110.831 223.933 104.369 218.132 92.8961 212.553C79.9667 206.268 75.8714 206.235 82.566 212.47Z" fill="url(#paint6_linear_704_3270)"/>
<path fill-rule="evenodd" clip-rule="evenodd" d="M56.3871 216.582C59.4501 222.405 61.3802 242.255 59.8926 252.637C58.1528 264.772 58.9972 270.434 63.3671 275.964C66.935 280.48 78.9496 287.249 80.3131 285.512C80.6943 285.027 81.1142 281.967 81.2481 278.71C81.4325 274.174 80.9422 272.854 79.1505 273.071C75.4852 273.514 68.985 267.206 68.4367 262.673C68.1634 260.413 68.7105 255.845 69.6522 252.52C70.5941 249.196 71.1439 244.65 70.8739 242.418C70.2257 237.059 71.8298 237.109 78.5331 242.659C86.1127 248.935 88.4062 252.692 89.3324 260.351C90.2976 268.331 92.9302 268.453 95.1494 260.619C97.8276 251.166 96.3247 246.188 87.8015 236.271C80.8877 228.227 59.0094 212.094 55.5769 212.51C54.8882 212.593 55.2515 214.425 56.3871 216.582Z" fill="url(#paint7_linear_704_3270)"/>
<path fill-rule="evenodd" clip-rule="evenodd" d="M89.6239 228.428C89.2312 231.533 90.4084 234.305 93.8206 238.319C96.4286 241.385 99.6704 246.156 101.025 248.918C103.989 254.972 105.919 255.138 106.315 249.375C106.811 242.146 102.883 234.082 96.3835 228.986L90.1682 224.113L89.6239 228.428Z" fill="url(#paint8_linear_704_3270)"/>
<path fill-rule="evenodd" clip-rule="evenodd" d="M71.7044 251.261C69.6604 263.569 69.9062 265.256 74.2453 268.681C79.8109 273.073 83.2773 271.861 81.4142 266.175C79.9612 261.739 80.1124 261.514 84.1773 262.033C88.363 262.567 88.4311 262.426 86.7867 256.713C84.8647 250.035 80.6803 244.46 76.3019 242.743C73.7126 241.728 73.099 242.864 71.7044 251.261Z" fill="url(#paint9_linear_704_3270)"/>
<path fill-rule="evenodd" clip-rule="evenodd" d="M132.588 244.251C131.466 246.392 128.627 250.936 126.278 254.348C123.931 257.759 122.075 261.092 122.151 261.753C122.23 262.413 121.329 263.071 120.152 263.213C117.277 263.561 100.772 284.936 97.0465 293.134C93.0633 301.903 94.0092 308.144 100.069 313.082C102.747 315.265 105.891 316.936 107.053 316.795C109.916 316.449 109.254 312.524 105.977 310.426C102.371 308.116 102.056 303.467 104.939 295.122C107.786 286.881 115.746 276.364 116.213 280.226C116.564 283.128 125.158 290.232 127.913 289.898C128.952 289.773 130.965 288.588 132.387 287.266C134.779 285.041 134.491 284.464 128.492 279.497C124.188 275.934 121.885 272.683 121.637 269.824C121.265 265.529 121.27 265.53 123.275 270.209C124.382 272.789 127.746 276.737 130.752 278.98L136.221 283.058L139.359 279.078C142.022 275.703 142.139 274.655 140.13 272.175C136.583 267.8 136.207 259.895 139.237 253.388C141.92 247.623 141.916 247.586 138.28 243.98L134.628 240.358L132.588 244.251Z" fill="url(#paint10_linear_704_3270)"/>
<path fill-rule="evenodd" clip-rule="evenodd" d="M146.529 244.36C138.652 255.323 136.631 266.889 141.987 270.34C143.434 271.274 144.554 271.408 144.474 270.641C144.396 269.876 144.879 268.093 145.55 266.682C146.594 264.482 147.159 264.528 149.509 267.012C152.247 269.905 152.252 269.905 154.231 266.433C157.14 261.331 157.265 254.324 154.568 247.636C151.534 240.112 150.023 239.497 146.529 244.36Z" fill="url(#paint11_linear_704_3270)"/>
<path fill-rule="evenodd" clip-rule="evenodd" d="M97.166 260.164C95.7967 267.732 95.935 270.242 97.9092 273.638C101.214 279.316 101.084 279.246 103.552 276.644C106.13 273.925 105.233 265.388 101.473 256.834L98.8489 250.863L97.166 260.164Z" fill="url(#paint12_linear_704_3270)"/>
<path fill-rule="evenodd" clip-rule="evenodd" d="M83.4982 274.756C83.1199 280.324 81.4162 289.807 79.7156 295.829C77.0444 305.281 76.8847 309.09 78.5459 323.686C80.2964 339.048 80.9606 341.309 85.8188 348.432C92.8397 358.724 91.3981 358.69 83.8141 348.386C78.7314 341.481 72.1833 337.454 70.1833 340.004C68.9942 341.52 78.1463 352.89 83.2285 356.211C89.6046 360.378 87.9103 361.512 81.3036 357.498C77.1392 354.968 68.5815 343.236 68.1201 339.421C67.9861 338.313 69.7172 337.846 72.8501 338.148C77.1045 338.555 77.7354 338.159 77.3881 335.287C77.1387 333.225 75.95 332.078 74.2716 332.281C71.844 332.575 71.8421 332.344 74.2557 330.09C77.1416 327.393 75.7232 323.971 71.9092 324.432C70.6368 324.586 67.9784 323.443 66.0001 321.893C61.9086 318.686 59.9421 308.026 61.5231 297.623C62.6153 290.42 65.8667 289.224 72.8388 293.459L77.3772 296.214L78.8654 292.393C80.1285 289.148 79.8672 288.374 77.1297 287.263C72.9509 285.569 61.8604 276.869 59.1971 273.195C57.462 270.802 56.7724 272.746 54.9734 285.116C51.5493 308.641 55.436 332.244 65.3451 348.109C76.9101 366.628 89.7764 373.199 110.557 371.196C117.819 370.497 126.616 370.544 130.105 371.302C134.044 372.156 143.746 371.772 155.695 370.285C176.14 367.742 185.294 364.482 181.654 361.042C180.22 359.686 180.093 358.605 181.197 357.198C184.529 352.952 179.915 352.044 164.495 353.909C138.1 357.101 120.983 352.517 113.912 340.361C111.586 336.362 109.544 331.943 109.374 330.541C109.087 328.165 100.946 324.859 99.6017 326.574C98.1981 328.362 104.924 340.391 109.211 343.756C113.181 346.875 113.398 347.372 110.703 347.186C106.315 346.88 98.5282 335.089 97.5893 327.326C96.8504 321.217 96.9671 321.024 100.07 323.214C103.676 325.762 108.798 325.774 108.49 323.234C108.382 322.338 104.652 318.874 100.203 315.537C92.2981 309.611 92.1001 309.561 91.6183 313.372C90.6487 321.036 94.8713 338.585 99.3515 345.518C103.269 351.58 103.356 351.945 100.159 348.926C92.2912 341.496 87.7177 320.924 90.7352 306.528C91.7166 301.841 94.2767 294.323 96.4235 289.824C99.1378 284.133 99.8715 280.629 98.8345 278.314C96.7674 273.701 90.6406 267.14 87.1231 265.773C84.5744 264.783 84.0971 265.965 83.4982 274.756Z" fill="url(#paint13_linear_704_3270)"/>
<path fill-rule="evenodd" clip-rule="evenodd" d="M171.083 267.257C169.206 271.582 165.35 276.453 161.674 279.149C158.248 281.659 155.241 283.481 154.99 283.197C154.74 282.913 153.013 279.199 151.153 274.944L147.773 267.208L144.071 274.569C141.784 279.116 135.672 285.985 128.089 292.535C117.964 301.279 115.266 304.666 112.718 311.83C109.036 322.176 109.781 331.554 114.857 338.779C123.74 351.421 140.448 355.701 165.812 351.835C179.503 349.748 180.691 349.298 180.335 346.35C179.984 343.452 178.525 343.21 165.378 343.866C146.792 344.796 137.712 343.189 130.195 337.641C125.13 333.902 124.055 332.09 123.327 326.073C121.559 311.454 136.474 302.628 143.985 313.849C146.042 316.923 146.273 316.93 148.302 313.982C149.482 312.269 151.72 308.149 153.275 304.825C155.07 300.991 155.887 300.148 155.507 302.518C154.317 309.964 161.88 304.286 165.192 295.248C168.329 286.688 168.263 286.466 163.132 288.274C159.304 289.622 159.407 289.383 164.088 286.073C166.976 284.031 169.539 282.441 169.785 282.538C170.03 282.637 169.495 286.025 168.597 290.07C166.768 298.297 160.886 307.162 156.939 307.639C155.513 307.812 152.201 310.778 149.58 314.231C145.548 319.542 145.294 320.446 147.934 320.096C159.152 318.61 172.128 302.733 174.752 287.281C176.251 278.462 176.502 259.661 175.12 259.828C174.649 259.885 172.832 263.228 171.083 267.257Z" fill="url(#paint14_linear_704_3270)"/>
<path fill-rule="evenodd" clip-rule="evenodd" d="M91.0536 290.391C85.9752 300.465 85.3178 304.868 88.2683 309.056C90.4688 312.178 90.7602 311.992 97.1793 303.435C100.83 298.569 104.749 294.175 105.89 293.674C107.287 293.06 105.878 291.033 101.578 287.472L95.1924 282.183L91.0536 290.391Z" fill="url(#paint15_linear_704_3270)"/>
<path fill-rule="evenodd" clip-rule="evenodd" d="M63.2537 294.629C62.7637 295.68 62.5428 301.119 62.7657 306.717C63.1181 315.646 63.6557 317.274 67.145 319.986C69.3319 321.685 71.9121 322.705 72.8805 322.248C73.8474 321.793 75.0499 315.966 75.5532 309.296C76.455 297.336 76.4132 297.14 72.4647 294.686C67.9147 291.858 64.5585 291.838 63.2537 294.629Z" fill="url(#paint16_linear_704_3270)"/>
<path fill-rule="evenodd" clip-rule="evenodd" d="M157.837 289.546C157.938 290.383 157.336 291.151 156.499 291.252C155.662 291.354 154.894 290.751 154.793 289.914C154.692 289.077 155.294 288.309 156.131 288.208C156.968 288.107 157.736 288.709 157.837 289.546Z" fill="url(#paint17_linear_704_3270)"/>
<path fill-rule="evenodd" clip-rule="evenodd" d="M156.645 296.636C156.267 298.007 155.821 297.667 155.509 295.767C155.228 294.048 155.508 293.033 156.132 293.51C156.757 293.986 156.988 295.394 156.645 296.636Z" fill="url(#paint18_linear_704_3270)"/>
<path fill-rule="evenodd" clip-rule="evenodd" d="M111.021 356.722C113.301 359.163 113.253 359.228 110.503 357.432C107.615 355.543 106.615 354.257 107.91 354.101C108.236 354.061 109.636 355.24 111.021 356.722Z" fill="url(#paint19_linear_704_3270)"/>
<path fill-rule="evenodd" clip-rule="evenodd" d="M98.2024 360.439C100.94 361.909 106.548 364.566 110.664 366.343C115.239 368.32 116.523 369.338 113.969 368.963C111.671 368.628 106.001 366.32 101.372 363.837C96.7403 361.354 92.2037 359.914 91.2896 360.636C90.2839 361.429 89.9956 361.164 90.5597 359.963C91.8098 357.295 92.4219 357.333 98.2024 360.439Z" fill="url(#paint20_linear_704_3270)"/>
<path fill-rule="evenodd" clip-rule="evenodd" d="M128.503 363.082C130.738 363.784 131.075 364.276 129.493 364.529C128.173 364.742 125.919 364.308 124.484 363.568C121.305 361.927 123.843 361.62 128.503 363.082Z" fill="url(#paint21_linear_704_3270)"/>
<path fill-rule="evenodd" clip-rule="evenodd" d="M137.287 364.837C136.855 365.456 135.566 365.673 134.424 365.318C133.16 364.927 133.468 364.485 135.209 364.193C136.784 363.929 137.718 364.218 137.287 364.837Z" fill="url(#paint22_linear_704_3270)"/>
<path fill-rule="evenodd" clip-rule="evenodd" d="M148.035 365.049C146.977 365.593 144.771 365.885 143.134 365.698C141.496 365.511 142.362 365.067 145.058 364.711C147.754 364.354 149.093 364.506 148.035 365.049Z" fill="url(#paint23_linear_704_3270)"/>
<path fill-rule="evenodd" clip-rule="evenodd" d="M171.263 362.101C170.787 362.725 169.379 362.957 168.139 362.613C166.766 362.235 167.106 361.789 169.006 361.478C170.725 361.196 171.74 361.476 171.263 362.101Z" fill="url(#paint24_linear_704_3270)"/>
<defs>
<linearGradient id="paint0_linear_704_3270" x1="10.7796" y1="22.8225" x2="32.2952" y2="83.454" gradientUnits="userSpaceOnUse">
<stop offset="0.0336538" stop-color="#FED87F"/>
<stop offset="0.567045" stop-color="#DAA21C"/>
<stop offset="1" stop-color="#74560F"/>
</linearGradient>
<linearGradient id="paint1_linear_704_3270" x1="59.9113" y1="94.8604" x2="117.857" y2="201.884" gradientUnits="userSpaceOnUse">
<stop offset="0.0336538" stop-color="#FED87F"/>
<stop offset="0.567045" stop-color="#DAA21C"/>
<stop offset="1" stop-color="#74560F"/>
</linearGradient>
<linearGradient id="paint2_linear_704_3270" x1="82.7068" y1="140.383" x2="89.4036" y2="160.496" gradientUnits="userSpaceOnUse">
<stop offset="0.0336538" stop-color="#FED87F"/>
<stop offset="0.567045" stop-color="#DAA21C"/>
<stop offset="1" stop-color="#74560F"/>
</linearGradient>
<linearGradient id="paint3_linear_704_3270" x1="69.9801" y1="157.688" x2="84.188" y2="199.441" gradientUnits="userSpaceOnUse">
<stop offset="0.0336538" stop-color="#FED87F"/>
<stop offset="0.567045" stop-color="#DAA21C"/>
<stop offset="1" stop-color="#74560F"/>
</linearGradient>
<linearGradient id="paint4_linear_704_3270" x1="120.876" y1="192.535" x2="125.321" y2="193.638" gradientUnits="userSpaceOnUse">
<stop offset="0.0336538" stop-color="#FED87F"/>
<stop offset="0.567045" stop-color="#DAA21C"/>
<stop offset="1" stop-color="#74560F"/>
</linearGradient>
<linearGradient id="paint5_linear_704_3270" x1="137.962" y1="199.739" x2="168.776" y2="253.058" gradientUnits="userSpaceOnUse">
<stop offset="0.0336538" stop-color="#FED87F"/>
<stop offset="0.567045" stop-color="#DAA21C"/>
<stop offset="1" stop-color="#74560F"/>
</linearGradient>
<linearGradient id="paint6_linear_704_3270" x1="86.0566" y1="211.948" x2="103.038" y2="254.788" gradientUnits="userSpaceOnUse">
<stop offset="0.0336538" stop-color="#FED87F"/>
<stop offset="0.567045" stop-color="#DAA21C"/>
<stop offset="1" stop-color="#74560F"/>
</linearGradient>
<linearGradient id="paint7_linear_704_3270" x1="59.7652" y1="217.812" x2="82.0756" y2="267.663" gradientUnits="userSpaceOnUse">
<stop offset="0.0336538" stop-color="#FED87F"/>
<stop offset="0.567045" stop-color="#DAA21C"/>
<stop offset="1" stop-color="#74560F"/>
</linearGradient>
<linearGradient id="paint8_linear_704_3270" x1="91.5207" y1="226.331" x2="101.04" y2="246.422" gradientUnits="userSpaceOnUse">
<stop offset="0.0336538" stop-color="#FED87F"/>
<stop offset="0.567045" stop-color="#DAA21C"/>
<stop offset="1" stop-color="#74560F"/>
</linearGradient>
<linearGradient id="paint9_linear_704_3270" x1="71.2493" y1="245.125" x2="79.1946" y2="265.002" gradientUnits="userSpaceOnUse">
<stop offset="0.0336538" stop-color="#FED87F"/>
<stop offset="0.567045" stop-color="#DAA21C"/>
<stop offset="1" stop-color="#74560F"/>
</linearGradient>
<linearGradient id="paint10_linear_704_3270" x1="96.9683" y1="250.486" x2="114.533" y2="301.142" gradientUnits="userSpaceOnUse">
<stop offset="0.0336538" stop-color="#FED87F"/>
<stop offset="0.567045" stop-color="#DAA21C"/>
<stop offset="1" stop-color="#74560F"/>
</linearGradient>
<linearGradient id="paint11_linear_704_3270" x1="139.666" y1="244.718" x2="147.224" y2="264.576" gradientUnits="userSpaceOnUse">
<stop offset="0.0336538" stop-color="#FED87F"/>
<stop offset="0.567045" stop-color="#DAA21C"/>
<stop offset="1" stop-color="#74560F"/>
</linearGradient>
<linearGradient id="paint12_linear_704_3270" x1="95.8347" y1="253.347" x2="106.213" y2="268.755" gradientUnits="userSpaceOnUse">
<stop offset="0.0336538" stop-color="#FED87F"/>
<stop offset="0.567045" stop-color="#DAA21C"/>
<stop offset="1" stop-color="#74560F"/>
</linearGradient>
<linearGradient id="paint13_linear_704_3270" x1="69.9519" y1="276.034" x2="91.9579" y2="357.214" gradientUnits="userSpaceOnUse">
<stop offset="0.0336538" stop-color="#FED87F"/>
<stop offset="0.567045" stop-color="#DAA21C"/>
<stop offset="1" stop-color="#74560F"/>
</linearGradient>
<linearGradient id="paint14_linear_704_3270" x1="116.105" y1="273.899" x2="136.798" y2="337.598" gradientUnits="userSpaceOnUse">
<stop offset="0.0336538" stop-color="#FED87F"/>
<stop offset="0.567045" stop-color="#DAA21C"/>
<stop offset="1" stop-color="#74560F"/>
</linearGradient>
<linearGradient id="paint15_linear_704_3270" x1="87.6937" y1="285.235" x2="94.3146" y2="304.821" gradientUnits="userSpaceOnUse">
<stop offset="0.0336538" stop-color="#FED87F"/>
<stop offset="0.567045" stop-color="#DAA21C"/>
<stop offset="1" stop-color="#74560F"/>
</linearGradient>
<linearGradient id="paint16_linear_704_3270" x1="63.4179" y1="295.229" x2="72.7345" y2="314.872" gradientUnits="userSpaceOnUse">
<stop offset="0.0336538" stop-color="#FED87F"/>
<stop offset="0.567045" stop-color="#DAA21C"/>
<stop offset="1" stop-color="#74560F"/>
</linearGradient>
<linearGradient id="paint17_linear_704_3270" x1="155.136" y1="288.564" x2="155.762" y2="290.766" gradientUnits="userSpaceOnUse">
<stop offset="0.0336538" stop-color="#FED87F"/>
<stop offset="0.567045" stop-color="#DAA21C"/>
<stop offset="1" stop-color="#74560F"/>
</linearGradient>
<linearGradient id="paint18_linear_704_3270" x1="155.482" y1="293.749" x2="156.971" y2="296.112" gradientUnits="userSpaceOnUse">
<stop offset="0.0336538" stop-color="#FED87F"/>
<stop offset="0.567045" stop-color="#DAA21C"/>
<stop offset="1" stop-color="#74560F"/>
</linearGradient>
<linearGradient id="paint19_linear_704_3270" x1="108.132" y1="354.466" x2="109.213" y2="358.119" gradientUnits="userSpaceOnUse">
<stop offset="0.0336538" stop-color="#FED87F"/>
<stop offset="0.567045" stop-color="#DAA21C"/>
<stop offset="1" stop-color="#74560F"/>
</linearGradient>
<linearGradient id="paint20_linear_704_3270" x1="93.9715" y1="358.892" x2="96.1128" y2="368.927" gradientUnits="userSpaceOnUse">
<stop offset="0.0336538" stop-color="#FED87F"/>
<stop offset="0.567045" stop-color="#DAA21C"/>
<stop offset="1" stop-color="#74560F"/>
</linearGradient>
<linearGradient id="paint21_linear_704_3270" x1="124.233" y1="362.315" x2="124.665" y2="364.587" gradientUnits="userSpaceOnUse">
<stop offset="0.0336538" stop-color="#FED87F"/>
<stop offset="0.567045" stop-color="#DAA21C"/>
<stop offset="1" stop-color="#74560F"/>
</linearGradient>
<linearGradient id="paint22_linear_704_3270" x1="134.22" y1="364.408" x2="134.401" y2="365.421" gradientUnits="userSpaceOnUse">
<stop offset="0.0336538" stop-color="#FED87F"/>
<stop offset="0.567045" stop-color="#DAA21C"/>
<stop offset="1" stop-color="#74560F"/>
</linearGradient>
<linearGradient id="paint23_linear_704_3270" x1="143.266" y1="365.004" x2="143.378" y2="365.768" gradientUnits="userSpaceOnUse">
<stop offset="0.0336538" stop-color="#FED87F"/>
<stop offset="0.567045" stop-color="#DAA21C"/>
<stop offset="1" stop-color="#74560F"/>
</linearGradient>
<linearGradient id="paint24_linear_704_3270" x1="167.926" y1="361.704" x2="168.103" y2="362.718" gradientUnits="userSpaceOnUse">
<stop offset="0.0336538" stop-color="#FED87F"/>
<stop offset="0.567045" stop-color="#DAA21C"/>
<stop offset="1" stop-color="#74560F"/>
</linearGradient>
</defs>
</svg>
