<svg width="369" height="197" viewBox="0 0 369 197" fill="none" xmlns="http://www.w3.org/2000/svg">
<g filter="url(#filter0_d_697_4125)">
<path d="M199.379 50.7015C205.302 41.6315 210.777 33.2377 216.451 24.5371C209.02 14.0091 193.107 10.707 182.023 18.8084C176.508 22.8468 171.733 28.0722 167.162 33.2769C157.595 44.1883 145.916 49.7496 131.696 49.5456C120.44 49.3855 111.146 53.5007 103.663 62.289C95.7202 71.6209 85.5725 76.4727 73.5967 77.9533C59.988 79.6185 48.0906 85.4697 37.4243 94.5039C28.3634 102.171 18.7169 109.132 7.26932 118.016C16.5003 120.542 24.9873 124.214 33.7265 124.954C52.1483 126.511 69.2073 130.939 83.4474 143.282C87.1346 146.484 90.6039 150.416 92.8888 154.735C99.631 167.474 110.486 173.181 123.695 170.792C134.34 168.872 145.288 164.819 154.469 158.975C164.717 152.469 165.506 140.153 158.73 131.566C152.943 124.236 133.396 118.339 127.943 125.048C120.865 133.757 128.348 139.04 133.156 138.955C135.795 138.917 139.78 136.468 142.509 136.172C146.09 152.654 128.743 152.69 121.989 149.99C114.885 147.153 111.497 141.34 112.369 133.451C112.675 130.705 113.985 128.087 115.705 122.635C109.46 123 86.938 139.449 68.3747 108.978C70.9914 108.255 92.6519 112.81 107.87 87.9614C116.545 75.4005 127.795 69.4238 142.25 68.6671C151.129 68.2076 158.116 64.4981 163.941 57.3309C175.728 42.8487 183.659 41.6057 199.379 50.7015Z" fill="url(#paint0_linear_697_4125)"/>
<path d="M341.737 67.9833C333.815 61.96 325.619 57.1114 316.661 58.3821C300.022 60.7557 286.378 54.4323 274.106 41.2398C264.933 31.3662 252.4 25.5421 238.066 26.841C224.793 28.0515 212.51 42.0103 212.933 55.5616C213.204 64.0999 217.6 70.0789 224.789 74.1307C230.641 77.4385 249.052 82.5525 250.329 65.9226C249.208 59.8987 244.303 57.9865 241.393 57.7076C234.517 57.0656 233.155 64.4883 229.898 64.5313C229.093 64.5364 229.727 49.9984 237.157 48.3855C250.969 45.3805 263.399 55.8611 256.168 75.5795C261.557 76.5824 280.936 74.9064 291.168 81.212C289.73 84.7228 288.328 88.2299 286.832 91.7274C279.551 108.698 266.115 114.532 249.051 113.718C233.566 112.973 220.993 118.376 209.96 130.105C198.345 142.467 192.057 143.639 172.772 142.495C171.393 149.078 170.032 155.659 168.507 162.926C179.855 173.899 204.036 175.102 218.306 164.402C222.317 161.396 226.146 158.006 229.577 154.351C239.491 143.767 250.737 137.103 265.665 137.254C275.079 137.352 283.153 132.787 288.566 124.534C292.555 118.451 296.655 112.357 299.761 105.809C308.114 88.2334 314.46 85.1243 341.737 67.9833Z" fill="url(#paint1_linear_697_4125)"/>
<path d="M278.02 85.6026C265.326 85.2822 250.798 81.9546 243.517 84.8527C228.807 90.6828 209.283 77.2497 200.84 64.5679C194.421 54.9125 179.501 52.4659 170.784 60.4232C167.31 63.5856 165.492 75.7006 145.795 77.8103C135.881 78.8718 127.956 81.4718 120.851 88.5774C112.711 96.7057 97.9581 113.515 83.3339 116.22C93.4678 124.199 115.782 114.654 126.846 113.247C142.525 111.257 157.685 114.31 168.034 129.973C170.577 133.807 180.54 136.354 185.579 133.741C195.459 128.61 205.13 122.793 214.051 116.115C222.499 109.811 230.546 103.413 241.57 103.711C255.658 104.119 272.149 103.501 278.02 85.6026Z" fill="url(#paint2_linear_697_4125)"/>
<path d="M276.891 88.5466C266.781 90.3736 230.143 90.2797 217.688 86.6656C208.174 83.9008 199.374 82.4595 192.951 73.1869C188.068 66.1291 175.771 58.6943 169.415 64.7107C166.885 67.0892 166.913 81.9234 152.345 83.7622C145.007 84.6967 137.357 83.1198 132.181 88.4813C126.267 94.6251 112.512 107.375 101.723 109.577C109.324 115.346 134.367 109.846 148.764 106.897C160.252 104.548 160.389 112.621 168.256 124.061C170.185 126.868 178.204 130.759 181.081 127.638C196.236 111.151 200.938 119.795 207.469 114.717C213.649 109.923 216.35 109.095 223.399 104.806C240.448 94.3983 263.809 108.208 276.891 88.5466Z" fill="url(#paint3_linear_697_4125)"/>
<path d="M170.555 153.694C170.555 153.694 197.2 166.693 208.46 153.048C219.741 139.42 244.63 125.427 256.709 127.301C268.787 129.175 289.033 114.353 295.845 95.6329C303.368 74.9671 324.01 68.4023 324.01 68.4023C324.01 68.4023 287.627 65.4145 273.617 56.8147C269.501 54.2872 253.273 28.2835 234.489 38.5606C216.761 48.2718 228.504 62.9328 229.859 64.5163C229.265 63.066 230.235 50.0236 237.243 48.5108C251.052 45.4869 263.484 55.9865 256.253 75.7049C261.641 76.6888 281.021 75.0317 291.254 81.3374C289.813 84.8292 288.413 88.3552 286.916 91.8338C279.653 108.802 266.218 114.637 249.153 113.822C233.668 113.077 221.093 118.462 210.062 130.21C198.446 142.552 192.158 143.724 172.872 142.58L170.555 153.694Z" fill="url(#paint4_linear_697_4125)"/>
<path d="M171.471 149.319C171.471 149.319 194.275 156.053 204.641 147.011C217.935 135.435 244.932 115.263 257.011 117.137C269.09 119.011 286.032 103.472 289.809 94.2939C291.73 89.6444 297.273 76.1772 297.273 76.1772C281.758 68.3798 259.948 72.9215 259.948 72.9215C266.001 62.7485 256.537 43.8989 240.278 45.6795C227.119 47.1271 228.504 62.9136 229.859 64.4972C229.265 63.0469 230.235 50.0045 237.242 48.4917C251.052 45.4678 263.484 55.9673 256.253 75.6857C261.64 76.6696 281.021 75.0126 291.253 81.3182C289.813 84.8101 288.413 88.3361 286.915 91.8146C279.653 108.783 266.217 114.618 249.153 113.803C233.668 113.058 221.093 118.443 210.062 130.191C198.445 142.533 192.157 143.705 172.872 142.561L171.471 149.319Z" fill="url(#paint5_linear_697_4125)"/>
<path d="M52.4754 125.1C65.7582 134.825 100.036 135.349 100.036 135.349C100.036 135.349 94.9844 139.551 105.097 152.045C123.393 174.665 148.372 159.764 147.285 146.548C146.549 137.617 142.527 136.17 142.527 136.17C144.915 153.155 128.805 152.55 122.051 149.85C114.946 146.994 111.559 141.199 112.432 133.31C112.72 130.585 114.029 127.948 115.749 122.496C109.522 122.859 87.0002 139.308 68.4184 108.84C71.0351 108.116 92.6956 112.671 107.914 87.8226C116.589 75.2617 127.838 69.285 142.294 68.5283C151.173 68.0687 158.159 64.3593 164.003 57.1902C175.775 42.7478 183.685 41.4877 199.344 50.5133L205.925 40.6118L206.522 39.7101C206.522 39.7101 194.23 21.2999 175.251 37.562C156.292 53.8222 151.33 60.5769 122.484 61.7587C102.058 62.5848 93.966 86.2144 76.0962 95.3663C58.7284 104.257 39.5877 95.2593 39.5877 95.2593C39.5877 95.2593 39.1756 115.396 52.4754 125.1Z" fill="url(#paint6_linear_697_4125)"/>
<path d="M84.4697 129.336C98.7084 137.549 112.873 125.847 112.873 125.847C112.873 125.847 107.122 139.068 113.299 147.008C121.434 157.445 143.389 156.522 144.444 147.276C145.452 138.359 142.525 136.151 142.525 136.151C144.913 153.136 128.803 152.531 122.049 149.831C114.945 146.975 111.558 141.18 112.43 133.291C112.719 130.566 114.027 127.929 115.747 122.477C109.521 122.84 86.9987 139.289 68.4169 108.821C71.0336 108.097 92.6941 112.652 107.913 87.8036C116.587 75.2428 127.837 69.266 142.292 68.5093C151.171 68.0498 158.158 64.3404 164.001 57.1712C175.774 42.7288 183.684 41.4688 199.342 50.4943L202.626 45.573C202.626 45.573 196.461 33.0047 178.034 42.0028C167.104 47.3353 161.642 67.1423 132.802 68.3999C104.336 69.6388 102.415 98.3219 82.2799 104.032C63.5893 109.329 56.2128 104.416 56.2128 104.416C56.2128 104.416 69.0476 120.439 84.4697 129.336Z" fill="url(#paint7_linear_697_4125)"/>
<path d="M248.89 91.0768C243.163 90.9304 212.073 89.3567 208.793 90.6449C202.164 93.2856 193.339 87.2199 189.526 81.4877C186.62 77.1359 175.118 71.5325 171.176 75.1248C169.612 76.5451 173.566 86.5076 164.693 87.4637C160.218 87.936 151.833 86.7395 149.333 90.549C142.904 100.263 126.528 100.908 119.926 102.131C124.492 105.742 144.997 103.875 149.982 103.236C157.06 102.328 164.677 106.987 168.482 114.574C171.875 121.305 177.414 120.361 179.837 119.562C203.424 111.953 194.895 103.907 207.899 99.1482C213.913 96.9713 246.234 99.1467 248.89 91.0768Z" fill="url(#paint8_linear_697_4125)"/>
</g>
<defs>
<filter id="filter0_d_697_4125" x="7.26932" y="14.2835" width="360.925" height="182.15" filterUnits="userSpaceOnUse" color-interpolation-filters="sRGB">
<feFlood flood-opacity="0" result="BackgroundImageFix"/>
<feColorMatrix in="SourceAlpha" type="matrix" values="0 0 0 0 0 0 0 0 0 0 0 0 0 0 0 0 0 0 127 0" result="hardAlpha"/>
<feOffset dx="20.3042" dy="18.4584"/>
<feGaussianBlur stdDeviation="3.0764"/>
<feComposite in2="hardAlpha" operator="out"/>
<feColorMatrix type="matrix" values="0 0 0 0 0 0 0 0 0 0 0 0 0 0 0 0 0 0 0.5 0"/>
<feBlend mode="normal" in2="BackgroundImageFix" result="effect1_dropShadow_697_4125"/>
<feBlend mode="normal" in="SourceGraphic" in2="effect1_dropShadow_697_4125" result="shape"/>
</filter>
<linearGradient id="paint0_linear_697_4125" x1="71.5818" y1="153.11" x2="179.64" y2="4.08241" gradientUnits="userSpaceOnUse">
<stop stop-color="#E5C465"/>
<stop offset="0.3016" stop-color="#CC8F12"/>
<stop offset="0.5132" stop-color="#E9CE74"/>
<stop offset="0.7989" stop-color="#CC8F12"/>
<stop offset="1" stop-color="#E6C668"/>
</linearGradient>
<linearGradient id="paint1_linear_697_4125" x1="305.337" y1="21.0933" x2="188.66" y2="165.194" gradientUnits="userSpaceOnUse">
<stop stop-color="#CF961F"/>
<stop offset="0.2037" stop-color="#E5C465"/>
<stop offset="0.418" stop-color="#CC8F12"/>
<stop offset="0.5767" stop-color="#E9CE74"/>
<stop offset="0.7989" stop-color="#CC8F12"/>
<stop offset="1" stop-color="#E6C668"/>
</linearGradient>
<linearGradient id="paint2_linear_697_4125" x1="211.068" y1="45.8425" x2="158.98" y2="138.451" gradientUnits="userSpaceOnUse">
<stop stop-color="#E5C465"/>
<stop offset="0.5026" stop-color="#CC8F12"/>
<stop offset="1" stop-color="#E9CE74"/>
</linearGradient>
<linearGradient id="paint3_linear_697_4125" x1="257.532" y1="69.6579" x2="100.155" y2="116.406" gradientUnits="userSpaceOnUse">
<stop stop-color="#CF961F"/>
<stop offset="0.2037" stop-color="#E5C465"/>
<stop offset="0.418" stop-color="#CC8F12"/>
<stop offset="0.5767" stop-color="#E9CE74"/>
<stop offset="0.7989" stop-color="#CC8F12"/>
<stop offset="1" stop-color="#E6C668"/>
</linearGradient>
<linearGradient id="paint4_linear_697_4125" x1="275.576" y1="47.7379" x2="210.802" y2="182.232" gradientUnits="userSpaceOnUse">
<stop stop-color="#CF961F"/>
<stop offset="0.2037" stop-color="#E5C465"/>
<stop offset="0.418" stop-color="#CC8F12"/>
<stop offset="0.5767" stop-color="#E9CE74"/>
<stop offset="0.7989" stop-color="#CC8F12"/>
<stop offset="1" stop-color="#E6C668"/>
</linearGradient>
<linearGradient id="paint5_linear_697_4125" x1="273.392" y1="56.839" x2="187.803" y2="162.544" gradientUnits="userSpaceOnUse">
<stop stop-color="#AF7714"/>
<stop offset="0.5397" stop-color="#D39C37"/>
<stop offset="1" stop-color="#AF7714"/>
</linearGradient>
<linearGradient id="paint6_linear_697_4125" x1="150.719" y1="-6.88059" x2="78.3901" y2="184.159" gradientUnits="userSpaceOnUse">
<stop stop-color="#CF961F"/>
<stop offset="0.2037" stop-color="#E5C465"/>
<stop offset="0.418" stop-color="#CC8F12"/>
<stop offset="0.5767" stop-color="#E9CE74"/>
<stop offset="0.7989" stop-color="#CC8F12"/>
<stop offset="1" stop-color="#E6C668"/>
</linearGradient>
<linearGradient id="paint7_linear_697_4125" x1="155.277" y1="5.49042" x2="91.4112" y2="174.177" gradientUnits="userSpaceOnUse">
<stop stop-color="#AF7714"/>
<stop offset="0.5397" stop-color="#D39C37"/>
<stop offset="1" stop-color="#AF7714"/>
</linearGradient>
<linearGradient id="paint8_linear_697_4125" x1="172.486" y1="76.1749" x2="194.493" y2="111.941" gradientUnits="userSpaceOnUse">
<stop stop-color="#AF7714"/>
<stop offset="0.5397" stop-color="#D39C37"/>
<stop offset="1" stop-color="#AF7714"/>
</linearGradient>
</defs>
</svg>
