<svg width="364" height="397" viewBox="0 0 364 397" fill="none" xmlns="http://www.w3.org/2000/svg">
<g filter="url(#filter0_d_697_2308)">
<path d="M236.533 146.287C222.094 136.213 208.74 126.886 194.901 117.218C199.707 96.8321 221.688 82.1866 243.319 87.6646C254.086 90.4015 264.46 95.3772 274.512 100.446C295.563 111.081 316.548 112.369 337.86 103.422C354.73 96.342 371.24 96.8991 387.86 105.6C405.503 114.842 423.748 115.99 442.7 110.946C464.226 105.188 485.716 106.78 507.284 113.918C525.601 119.971 544.372 124.604 567.026 131.041C554.645 140.457 544.083 151.148 531.358 157.573C504.534 171.112 481.509 188.153 467.542 215.411C463.93 222.478 461.088 230.513 460.268 238.412C457.845 261.712 444.948 276.91 423.585 281.333C406.372 284.908 387.407 285.449 370.016 282.218C350.615 278.636 341.942 260.549 346.94 243.488C351.21 228.923 377.093 208.157 389.389 214.957C405.35 223.785 397.279 236.297 389.98 239.089C385.979 240.636 378.484 239.364 374.191 240.577C378.806 267.598 404.978 257.113 413.519 248.939C422.503 240.347 424.079 229.525 417.971 218.163C415.842 214.209 412.276 211.058 406.371 203.886C416.007 200.641 459.952 211.753 469.422 154.542C465.037 155.041 435.153 175.068 397.115 146.857C376.406 133.192 355.817 131.017 333.567 138.659C319.903 143.361 307.118 142.014 293.982 134.749C267.414 120.08 254.704 123.024 236.533 146.287Z" fill="url(#paint0_linear_697_2308)"/>
<path d="M32.4356 258.83C40.7184 244.937 50.1267 232.649 64.4033 229.121C90.9278 222.59 107.654 204.768 118.137 177.425C125.967 156.968 141.321 140.574 163.717 133.823C184.462 127.583 211.458 141.163 219.053 161.848C223.833 174.884 220.839 186.567 212.463 197.043C205.652 205.585 181.005 224.48 168.976 200.187C167.005 190.426 173.239 184.562 177.456 182.374C187.43 177.229 193.994 187.59 198.929 185.677C200.146 185.195 190.357 163.665 178.177 165.748C155.531 169.61 143.161 192.961 166.042 218.292C158.527 223.078 128.296 232.325 116.702 248.048C121.004 252.466 125.248 256.901 129.628 261.264C150.915 282.422 174.713 283.055 199.942 271.459C222.832 260.928 245.068 261.434 268.826 272.412C293.845 283.99 304.036 281.936 332.412 268.495C338.491 277.58 344.54 286.675 351.255 296.702C340.814 320.138 305.094 336.642 277.083 329.183C269.208 327.089 261.377 324.305 253.984 320.88C232.61 310.949 211.608 307.735 189.197 317.033C175.065 322.901 160.12 320.924 146.946 311.771C137.237 305.026 127.353 298.331 118.694 290.348C95.423 268.928 83.9692 268.096 32.4356 258.83Z" fill="url(#paint1_linear_697_2308)"/>
<path d="M139.191 246.678C158.131 238.482 178.009 224.639 190.746 224.584C216.463 224.436 237.733 192.324 242.755 168.077C246.565 149.622 267.57 136.869 285.545 143.568C292.703 146.225 302.804 163.383 333.779 154.596C349.368 150.173 362.895 149.277 377.922 155.672C395.131 162.979 427.583 179.355 451.271 174.547C440.843 192.732 401.407 191.901 383.873 196.501C359.029 203.028 338.031 216.842 331.946 246.74C330.443 254.064 316.971 263.958 307.787 263.079C289.777 261.348 271.664 258.455 254.158 253.809C237.593 249.437 221.576 244.682 205.139 251.829C184.15 261.004 158.915 270.091 139.191 246.678Z" fill="url(#paint2_linear_697_2308)"/>
<path d="M142.682 250.429C159.031 247.041 214.205 224.639 230.783 211.625C243.445 201.677 255.835 194.157 259.884 176.277C262.957 162.671 276.978 143.992 290.214 149.199C295.472 151.248 304.442 173.627 327.52 167.548C339.151 164.498 349.724 157.473 360.784 162.41C373.432 168.079 401.913 178.942 419.515 175.706C411.563 189.021 370.469 195.945 346.975 200.246C328.229 203.685 332.929 215.939 328.021 237.963C326.818 243.366 317.094 254.104 310.86 251.147C277.997 235.502 276.162 251.389 263.232 247.702C251.002 244.23 246.427 244.623 233.196 242.439C201.172 237.109 174.347 272.119 142.682 250.429Z" fill="url(#paint3_linear_697_2308)"/>
<path d="M342.558 284.03C342.558 284.03 310.291 319.813 285.026 306.086C259.742 292.396 213.721 286.425 196.651 296.588C179.582 306.752 140.056 296.708 118.415 272.627C94.5174 246.046 59.4123 248.691 59.4123 248.691C59.4123 248.691 112.443 222.082 128.337 200.607C133.006 194.296 141.67 145.237 176.23 149.316C208.854 153.185 200.06 182.42 198.979 185.63C198.994 183.083 189.608 164.012 178.125 165.989C155.47 169.821 143.109 193.201 165.99 218.532C158.466 223.289 128.244 232.566 116.65 248.288C120.943 252.677 125.195 257.142 129.567 261.475C150.824 282.642 174.622 283.275 199.852 271.679C222.741 261.148 244.969 261.624 268.735 272.632C293.745 284.179 303.936 282.126 332.313 268.684L342.558 284.03Z" fill="url(#paint4_linear_697_2308)"/>
<path d="M338.52 277.991C338.52 277.991 308.234 301.997 287.115 294.664C260.041 285.292 207.09 271.286 190.02 281.45C172.951 291.614 137.97 278.482 126.699 266.942C120.979 261.1 104.442 244.166 104.442 244.166C123.091 222.986 158.728 216.582 158.728 216.582C143.424 204.924 146.237 170.759 171.829 163.565C192.545 157.752 200.049 182.391 198.968 185.601C198.982 183.054 189.596 163.983 178.113 165.96C155.459 169.792 143.098 193.172 165.978 218.503C158.455 223.26 128.233 232.537 116.639 248.259C120.932 252.648 125.184 257.113 129.555 261.446C150.813 282.613 174.611 283.246 199.84 271.65C222.73 261.119 244.958 261.595 268.724 272.603C293.734 284.15 303.925 282.097 332.302 268.655L338.52 277.991Z" fill="url(#paint5_linear_697_2308)"/>
<path d="M503.184 169.185C489.07 191.915 437.717 213.531 437.717 213.531C437.717 213.531 447.884 216.796 440.231 241.773C426.394 286.988 379.686 279.703 373.295 259.119C368.978 245.21 374.162 240.584 374.162 240.584C380.882 267.639 404.799 256.939 413.34 248.765C422.315 240.143 423.9 229.351 417.792 217.988C415.701 214.056 412.126 210.875 406.221 203.703C415.828 200.467 459.772 211.579 469.272 154.359C464.887 154.858 435.003 174.885 396.965 146.674C376.256 133.009 355.667 130.835 333.417 138.477C319.753 143.178 306.968 141.831 293.803 134.575C267.282 119.956 254.592 122.862 236.472 145.981L220.535 135.054L219.088 134.057C219.088 134.057 226.432 98.8366 264.921 111.82C303.381 124.812 314.964 131.98 359.166 116.236C390.46 105.071 417.014 135.775 449.512 138.714C481.095 141.564 504.482 116.371 504.482 116.371C504.482 116.371 517.337 146.476 503.184 169.185Z" fill="url(#paint6_linear_697_2308)"/>
<path d="M457.528 195.008C441.054 216.04 412.592 207.006 412.592 207.006C412.592 207.006 429.294 223.441 424.807 239.163C418.884 259.84 385.228 271.787 378.02 258.49C371.083 245.662 374.153 240.555 374.153 240.555C380.873 267.61 404.79 256.909 413.331 248.735C422.306 240.114 423.891 229.321 417.782 217.959C415.691 214.026 412.117 210.846 406.211 203.673C415.818 200.437 459.763 211.55 469.262 154.33C464.878 154.829 434.994 174.856 396.955 146.644C376.247 132.98 355.658 130.805 333.407 138.447C319.743 143.149 306.958 141.802 293.793 134.545C267.273 119.926 254.583 122.833 236.463 145.952L228.522 140.528C228.522 140.528 230.18 117.836 263.424 120.205C283.141 121.603 303.409 148.142 347.647 132.516C391.311 117.088 411.633 159.16 445.455 155.535C476.848 152.163 484.983 140.276 484.983 140.276C484.983 140.276 475.37 172.227 457.528 195.008Z" fill="url(#paint7_linear_697_2308)"/>
<path d="M186.428 237.231C194.973 233.531 240.883 212.27 246.609 212.219C258.207 212.172 267.825 197.666 270.09 186.709C271.826 178.383 285.761 162.948 293.886 165.968C297.106 167.159 297.199 184.579 311.156 180.629C318.188 178.623 330.102 171.725 336.184 175.948C351.778 186.686 376.856 177.709 387.551 175.541C382.862 183.757 350.818 193.402 342.915 195.468C331.692 198.4 323.041 210.05 321.916 223.799C320.89 236.007 311.967 237.95 307.829 238.216C267.65 241.077 275.617 223.767 253.124 224.494C242.736 224.866 195.334 247.783 186.428 237.231Z" fill="url(#paint8_linear_697_2308)"/>
</g>
<defs>
<filter id="filter0_d_697_2308" x="32.4355" y="86.507" width="577.591" height="284.488" filterUnits="userSpaceOnUse" color-interpolation-filters="sRGB">
<feFlood flood-opacity="0" result="BackgroundImageFix"/>
<feColorMatrix in="SourceAlpha" type="matrix" values="0 0 0 0 0 0 0 0 0 0 0 0 0 0 0 0 0 0 127 0" result="hardAlpha"/>
<feOffset dx="33" dy="30"/>
<feGaussianBlur stdDeviation="5"/>
<feComposite in2="hardAlpha" operator="out"/>
<feColorMatrix type="matrix" values="0 0 0 0 0 0 0 0 0 0 0 0 0 0 0 0 0 0 0.5 0"/>
<feBlend mode="normal" in2="BackgroundImageFix" result="effect1_dropShadow_697_2308"/>
<feBlend mode="normal" in="SourceGraphic" in2="effect1_dropShadow_697_2308" result="shape"/>
</filter>
<linearGradient id="paint0_linear_697_2308" x1="491.4" y1="223.017" x2="237.964" y2="64.0183" gradientUnits="userSpaceOnUse">
<stop stop-color="#E5C465"/>
<stop offset="0.3016" stop-color="#CC8F12"/>
<stop offset="0.5132" stop-color="#E9CE74"/>
<stop offset="0.7989" stop-color="#CC8F12"/>
<stop offset="1" stop-color="#E6C668"/>
</linearGradient>
<linearGradient id="paint1_linear_697_2308" x1="58.8173" y1="166.03" x2="322.253" y2="312.365" gradientUnits="userSpaceOnUse">
<stop stop-color="#CF961F"/>
<stop offset="0.2037" stop-color="#E5C465"/>
<stop offset="0.418" stop-color="#CC8F12"/>
<stop offset="0.5767" stop-color="#E9CE74"/>
<stop offset="0.7989" stop-color="#CC8F12"/>
<stop offset="1" stop-color="#E6C668"/>
</linearGradient>
<linearGradient id="paint2_linear_697_2308" x1="215.96" y1="146.064" x2="350.746" y2="254.02" gradientUnits="userSpaceOnUse">
<stop stop-color="#E5C465"/>
<stop offset="0.5026" stop-color="#CC8F12"/>
<stop offset="1" stop-color="#E9CE74"/>
</linearGradient>
<linearGradient id="paint3_linear_697_2308" x1="160.387" y1="210.194" x2="426.027" y2="185.047" gradientUnits="userSpaceOnUse">
<stop stop-color="#CF961F"/>
<stop offset="0.2037" stop-color="#E5C465"/>
<stop offset="0.418" stop-color="#CC8F12"/>
<stop offset="0.5767" stop-color="#E9CE74"/>
<stop offset="0.7989" stop-color="#CC8F12"/>
<stop offset="1" stop-color="#E6C668"/>
</linearGradient>
<linearGradient id="paint4_linear_697_2308" x1="119.87" y1="188.114" x2="299.227" y2="351.502" gradientUnits="userSpaceOnUse">
<stop stop-color="#CF961F"/>
<stop offset="0.2037" stop-color="#E5C465"/>
<stop offset="0.418" stop-color="#CC8F12"/>
<stop offset="0.5767" stop-color="#E9CE74"/>
<stop offset="0.7989" stop-color="#CC8F12"/>
<stop offset="1" stop-color="#E6C668"/>
</linearGradient>
<linearGradient id="paint5_linear_697_2308" x1="128.691" y1="200.506" x2="321.935" y2="307.85" gradientUnits="userSpaceOnUse">
<stop stop-color="#AF7714"/>
<stop offset="0.5397" stop-color="#D39C37"/>
<stop offset="1" stop-color="#AF7714"/>
</linearGradient>
<linearGradient id="paint6_linear_697_2308" x1="274.901" y1="29.9202" x2="500.001" y2="273.958" gradientUnits="userSpaceOnUse">
<stop stop-color="#CF961F"/>
<stop offset="0.2037" stop-color="#E5C465"/>
<stop offset="0.418" stop-color="#CC8F12"/>
<stop offset="0.5767" stop-color="#E9CE74"/>
<stop offset="0.7989" stop-color="#CC8F12"/>
<stop offset="1" stop-color="#E6C668"/>
</linearGradient>
<linearGradient id="paint7_linear_697_2308" x1="275.546" y1="51.3383" x2="474.308" y2="266.821" gradientUnits="userSpaceOnUse">
<stop stop-color="#AF7714"/>
<stop offset="0.5397" stop-color="#D39C37"/>
<stop offset="1" stop-color="#AF7714"/>
</linearGradient>
<linearGradient id="paint8_linear_697_2308" x1="292.55" y1="168.347" x2="281.105" y2="235.633" gradientUnits="userSpaceOnUse">
<stop stop-color="#AF7714"/>
<stop offset="0.5397" stop-color="#D39C37"/>
<stop offset="1" stop-color="#AF7714"/>
</linearGradient>
</defs>
</svg>
