<svg width="341" height="177" viewBox="0 0 341 177" fill="none" xmlns="http://www.w3.org/2000/svg">
<g filter="url(#filter0_d_697_4114)">
<path d="M137.029 44.9582C131.572 36.9919 126.527 29.6196 121.299 21.9777C128.069 12.7899 142.633 9.9641 152.815 17.1036C157.881 20.6625 162.273 25.2576 166.479 29.8338C175.28 39.4274 185.998 44.3452 199.022 44.2252C209.332 44.1315 217.859 47.7732 224.745 55.4992C232.053 63.7032 241.365 67.9934 252.34 69.3393C264.812 70.8535 275.73 76.0259 285.532 83.9804C293.859 90.7312 302.72 96.8667 313.237 104.693C304.79 106.866 297.029 110.046 289.027 110.658C272.158 111.945 256.548 115.753 243.548 126.502C240.181 129.29 237.017 132.719 234.94 136.491C228.809 147.618 218.886 152.571 206.778 150.424C197.021 148.699 186.979 145.105 178.548 139.95C169.138 134.211 168.372 123.423 174.549 115.932C179.824 109.538 197.708 104.455 202.726 110.352C209.24 118.007 202.404 122.603 198 122.508C195.582 122.464 191.924 120.303 189.423 120.033C186.201 134.45 202.091 134.553 208.268 132.217C214.764 129.762 217.848 124.686 217.021 117.774C216.731 115.368 215.522 113.07 213.927 108.29C219.649 108.635 240.337 123.131 257.233 96.527C254.834 95.8823 235.009 99.7818 220.981 77.9612C212.991 66.9268 202.666 61.6471 189.422 60.9249C181.287 60.4859 174.875 57.209 169.514 50.9092C158.665 38.1797 151.397 37.0586 137.029 44.9582Z" fill="url(#paint0_linear_697_4114)"/>
<path d="M6.69194 59.5032C13.9274 54.2617 21.4172 50.05 29.6277 51.1996C44.8771 53.3466 57.3528 47.866 68.5467 36.365C76.9148 27.7573 88.3744 22.7094 101.508 23.9058C113.671 25.0205 124.971 37.2937 124.631 49.1578C124.413 56.633 120.407 61.8502 113.836 65.3684C108.488 68.2406 91.642 72.6426 90.413 58.0759C91.4185 52.8058 95.9055 51.1517 98.5697 50.9195C104.866 50.3857 106.14 56.8908 109.123 56.9419C109.86 56.9496 109.228 44.2173 102.417 42.7743C89.755 40.0862 78.4061 49.2119 85.0991 66.5076C80.1661 67.3634 62.4096 65.816 53.0589 71.2951C54.3891 74.3752 55.6852 77.4518 57.0679 80.5204C63.7974 95.41 76.1245 100.574 91.7527 99.9316C105.934 99.3431 117.47 104.126 127.617 114.442C138.3 125.314 144.064 126.366 161.725 125.444C163.011 131.214 164.28 136.982 165.704 143.352C155.347 152.913 133.202 153.866 120.094 144.439C116.408 141.789 112.889 138.806 109.734 135.591C100.615 126.283 90.2903 120.401 76.6174 120.472C67.9943 120.519 60.5826 116.488 55.5956 109.239C51.9201 103.896 48.1425 98.5436 45.2746 92.7975C37.5612 77.3732 31.7383 74.6247 6.69194 59.5032Z" fill="url(#paint1_linear_697_4114)"/>
<path d="M65.1182 75.1939C76.7444 74.9657 90.0401 72.1119 96.7199 74.6795C110.214 79.8452 128.051 68.1634 135.74 57.0939C141.585 48.6659 155.244 46.5851 163.256 53.5886C166.449 56.372 168.158 66.9876 186.207 68.9162C195.292 69.8865 202.561 72.1958 209.093 78.447C216.579 85.5978 230.151 100.377 243.556 102.806C234.302 109.751 213.829 101.301 203.689 100.023C189.32 98.2163 175.445 100.827 166.02 114.499C163.705 117.846 154.587 120.035 149.963 117.726C140.895 113.193 132.016 108.059 123.82 102.175C116.06 96.6198 108.667 90.9844 98.5696 91.2001C85.6666 91.4998 70.5589 90.89 65.1182 75.1939Z" fill="url(#paint2_linear_697_4114)"/>
<path d="M66.1628 77.7763C75.4296 79.4178 108.99 79.4867 120.385 76.3735C129.09 73.9919 137.145 72.7661 142.996 64.6733C147.444 58.5135 158.682 52.0542 164.525 57.3485C166.851 59.4416 166.877 72.4305 180.228 74.1007C186.953 74.9493 193.955 73.6001 198.715 78.3161C204.154 83.7201 216.798 94.9412 226.688 96.9136C219.747 101.934 196.788 97.0146 183.59 94.3725C173.058 92.2682 172.962 99.3373 165.796 109.322C164.039 111.771 156.708 115.146 154.061 112.401C140.121 97.9021 135.845 105.451 129.845 100.978C124.167 96.7547 121.689 96.0185 115.218 92.2336C99.5643 83.0505 78.2149 95.0458 66.1628 77.7763Z" fill="url(#paint3_linear_697_4114)"/>
<path d="M163.795 135.26C163.795 135.26 139.435 146.532 129.072 134.537C118.691 122.558 95.8435 110.203 84.7861 111.794C73.7287 113.385 55.1315 100.323 48.8263 83.903C41.8618 65.7766 22.9309 59.9432 22.9309 59.9432C22.9309 59.9432 56.2469 57.4771 69.0494 50.0048C72.8107 47.8086 87.5837 25.1062 104.826 34.1825C121.099 42.7589 110.394 55.5479 109.159 56.9289C109.698 55.6615 108.763 44.2373 102.339 42.8837C89.6788 40.179 78.3285 49.3213 85.0215 66.617C80.0899 67.4563 62.332 65.9254 52.9812 71.4045C54.3129 74.468 55.6076 77.5612 56.9917 80.6133C63.7042 95.5011 76.0313 100.666 91.6595 100.023C105.841 99.4342 117.378 104.201 127.524 114.533C138.208 125.388 143.972 126.441 161.633 125.518L163.795 135.26Z" fill="url(#paint4_linear_697_4114)"/>
<path d="M162.941 131.424C162.941 131.424 142.076 137.227 132.549 129.267C120.33 119.076 95.5308 101.302 84.4734 102.893C73.416 104.484 57.8423 90.8073 54.3498 82.7555C52.5738 78.6764 47.4497 66.8613 47.4497 66.8613C61.6332 60.0978 81.6269 64.1645 81.6269 64.1645C76.0473 55.232 84.6491 38.7659 99.5487 40.3921C111.607 41.7139 110.394 55.5312 109.159 56.9122C109.698 55.6447 108.764 44.2206 102.339 42.867C89.679 40.1623 78.3287 49.3046 85.0217 66.6003C80.0901 67.4395 62.3321 65.9087 52.9814 71.3878C54.313 74.4513 55.6078 77.5445 56.9919 80.5965C63.7044 95.4844 76.0314 100.649 91.6597 100.006C105.841 99.4175 117.378 104.184 127.524 114.516C138.208 125.372 143.972 126.424 161.633 125.502L162.941 131.424Z" fill="url(#paint5_linear_697_4114)"/>
<path d="M271.854 110.709C259.721 119.17 228.325 119.487 228.325 119.487C228.325 119.487 232.967 123.187 223.748 134.085C207.069 153.816 184.135 140.666 185.085 129.098C185.727 121.281 189.407 120.03 189.407 120.03C187.279 134.893 202.033 134.429 208.21 132.093C214.708 129.622 217.79 124.562 216.963 117.65C216.689 115.263 215.482 112.948 213.887 108.168C219.591 108.512 240.279 123.008 257.193 96.4052C254.793 95.7605 234.969 99.66 220.941 77.8394C212.951 66.8051 202.625 61.5253 189.381 60.8031C181.247 60.3641 174.834 57.0872 169.456 50.7857C158.622 38.0911 151.372 36.9551 137.061 44.7935L130.998 36.0964L130.448 35.3044C130.448 35.3044 141.642 19.2348 159.084 33.5525C176.508 47.8685 181.076 53.8035 207.503 54.9573C226.216 55.7649 233.712 76.4888 250.112 84.5761C266.052 92.4327 283.553 84.633 283.553 84.633C283.553 84.633 284.002 102.267 271.854 110.709Z" fill="url(#paint6_linear_697_4114)"/>
<path d="M242.562 114.286C229.548 121.419 216.533 111.114 216.533 111.114C216.533 111.114 221.847 122.714 216.217 129.641C208.802 138.747 188.689 137.847 187.69 129.747C186.735 121.935 189.408 120.014 189.408 120.014C187.28 134.877 202.035 134.413 208.212 132.077C214.71 129.605 217.792 124.545 216.965 117.634C216.69 115.247 215.483 112.932 213.888 108.152C219.593 108.495 240.281 122.991 257.194 96.3886C254.794 95.744 234.97 99.6434 220.942 77.8228C212.952 66.7885 202.626 61.5088 189.383 60.7865C181.248 60.3475 174.836 57.0707 169.457 50.7691C158.623 38.0745 151.373 36.9385 137.062 44.7769L134.037 40.4541C134.037 40.4541 139.64 29.4746 156.55 37.4294C166.581 42.1438 171.654 59.5097 198.075 60.7298C224.154 61.9321 226.015 87.0555 244.479 92.1387C261.618 96.8534 268.357 92.5825 268.357 92.5825C268.357 92.5825 256.657 106.559 242.562 114.286Z" fill="url(#paint7_linear_697_4114)"/>
<path d="M91.8201 80.1073C97.0658 80.0027 125.538 78.753 128.547 79.8945C134.628 82.2341 142.691 76.9593 146.163 71.9557C148.809 68.1572 159.325 63.2982 162.949 66.46C164.386 67.71 160.8 76.4171 168.931 77.2909C173.031 77.7229 180.708 76.7098 183.011 80.0558C188.934 88.588 203.937 89.2207 209.989 90.3189C205.819 93.4611 187.03 91.7422 182.462 91.1623C175.975 90.3379 169.014 94.3856 165.556 101.014C162.472 106.893 157.394 106.044 155.172 105.334C133.54 98.5743 141.324 91.5642 129.396 87.3438C123.88 85.4129 94.281 87.1844 91.8201 80.1073Z" fill="url(#paint8_linear_697_4114)"/>
</g>
<defs>
<filter id="filter0_d_697_4114" x="6.69197" y="13.0832" width="334.086" height="163.573" filterUnits="userSpaceOnUse" color-interpolation-filters="sRGB">
<feFlood flood-opacity="0" result="BackgroundImageFix"/>
<feColorMatrix in="SourceAlpha" type="matrix" values="0 0 0 0 0 0 0 0 0 0 0 0 0 0 0 0 0 0 127 0" result="hardAlpha"/>
<feOffset dx="21.1365" dy="19.215"/>
<feGaussianBlur stdDeviation="3.20251"/>
<feComposite in2="hardAlpha" operator="out"/>
<feColorMatrix type="matrix" values="0 0 0 0 0 0 0 0 0 0 0 0 0 0 0 0 0 0 0.5 0"/>
<feBlend mode="normal" in2="BackgroundImageFix" result="effect1_dropShadow_697_4114"/>
<feBlend mode="normal" in="SourceGraphic" in2="effect1_dropShadow_697_4114" result="shape"/>
</filter>
<linearGradient id="paint0_linear_697_4114" x1="254.451" y1="135.156" x2="161.097" y2="-0.029303" gradientUnits="userSpaceOnUse">
<stop stop-color="#E5C465"/>
<stop offset="0.3016" stop-color="#CC8F12"/>
<stop offset="0.5132" stop-color="#E9CE74"/>
<stop offset="0.7989" stop-color="#CC8F12"/>
<stop offset="1" stop-color="#E6C668"/>
</linearGradient>
<linearGradient id="paint1_linear_697_4114" x1="39.8683" y1="18.5955" x2="141.227" y2="149.904" gradientUnits="userSpaceOnUse">
<stop stop-color="#CF961F"/>
<stop offset="0.2037" stop-color="#E5C465"/>
<stop offset="0.418" stop-color="#CC8F12"/>
<stop offset="0.5767" stop-color="#E9CE74"/>
<stop offset="0.7989" stop-color="#CC8F12"/>
<stop offset="1" stop-color="#E6C668"/>
</linearGradient>
<linearGradient id="paint2_linear_697_4114" x1="126.305" y1="40.6553" x2="170.769" y2="123.871" gradientUnits="userSpaceOnUse">
<stop stop-color="#E5C465"/>
<stop offset="0.5026" stop-color="#CC8F12"/>
<stop offset="1" stop-color="#E9CE74"/>
</linearGradient>
<linearGradient id="paint3_linear_697_4114" x1="83.8284" y1="61.3169" x2="227.378" y2="105.407" gradientUnits="userSpaceOnUse">
<stop stop-color="#CF961F"/>
<stop offset="0.2037" stop-color="#E5C465"/>
<stop offset="0.418" stop-color="#CC8F12"/>
<stop offset="0.5767" stop-color="#E9CE74"/>
<stop offset="0.7989" stop-color="#CC8F12"/>
<stop offset="1" stop-color="#E6C668"/>
</linearGradient>
<linearGradient id="paint4_linear_697_4114" x1="67.2235" y1="42.0488" x2="122.15" y2="162.31" gradientUnits="userSpaceOnUse">
<stop stop-color="#CF961F"/>
<stop offset="0.2037" stop-color="#E5C465"/>
<stop offset="0.418" stop-color="#CC8F12"/>
<stop offset="0.5767" stop-color="#E9CE74"/>
<stop offset="0.7989" stop-color="#CC8F12"/>
<stop offset="1" stop-color="#E6C668"/>
</linearGradient>
<linearGradient id="paint5_linear_697_4114" x1="69.2559" y1="50.027" x2="143.608" y2="146.349" gradientUnits="userSpaceOnUse">
<stop stop-color="#AF7714"/>
<stop offset="0.5397" stop-color="#D39C37"/>
<stop offset="1" stop-color="#AF7714"/>
</linearGradient>
<linearGradient id="paint6_linear_697_4114" x1="181.399" y1="-5.26109" x2="242.169" y2="164.518" gradientUnits="userSpaceOnUse">
<stop stop-color="#CF961F"/>
<stop offset="0.2037" stop-color="#E5C465"/>
<stop offset="0.418" stop-color="#CC8F12"/>
<stop offset="0.5767" stop-color="#E9CE74"/>
<stop offset="0.7989" stop-color="#CC8F12"/>
<stop offset="1" stop-color="#E6C668"/>
</linearGradient>
<linearGradient id="paint7_linear_697_4114" x1="177.267" y1="5.55239" x2="230.927" y2="155.466" gradientUnits="userSpaceOnUse">
<stop stop-color="#AF7714"/>
<stop offset="0.5397" stop-color="#D39C37"/>
<stop offset="1" stop-color="#AF7714"/>
</linearGradient>
<linearGradient id="paint8_linear_697_4114" x1="161.753" y1="67.3741" x2="142.883" y2="99.2877" gradientUnits="userSpaceOnUse">
<stop stop-color="#AF7714"/>
<stop offset="0.5397" stop-color="#D39C37"/>
<stop offset="1" stop-color="#AF7714"/>
</linearGradient>
</defs>
</svg>
