<svg width="1064" height="361" viewBox="0 0 1064 361" fill="none" xmlns="http://www.w3.org/2000/svg">
<mask id="mask0_1049_1223" style="mask-type:alpha" maskUnits="userSpaceOnUse" x="436" y="225" width="285" height="136">
<path d="M508.4 284.128L508.549 343.158L510.133 346.426C515.184 356.627 529.991 362.322 547.522 360.738C554.257 360.143 558.02 359.202 563.071 356.776C570.153 353.359 574.758 347.961 576.095 341.523C576.492 339.691 576.64 321.715 576.64 281.949V225L574.56 226.288C570.351 228.912 561.437 232.973 557.228 234.161C542.371 238.42 527.168 236.192 512.56 227.625L508.301 225.099L508.4 284.128ZM547.324 293.884C547.175 346.674 547.571 341.92 542.867 342.316C540.737 342.464 539.994 342.316 538.905 341.424L537.518 340.384V293.834V247.334H542.471H547.423L547.324 293.884Z" fill="black"/>
<path d="M436 249.562V273.58L439.863 269.817C449.569 260.358 459.77 254.762 467.396 254.762C472.646 254.762 474.428 257.585 474.032 265.31C473.686 271.005 472.101 275.462 467.297 284.326C456.551 304.085 447.538 322.755 442.19 336.274C438.823 344.742 436 354.547 436 357.816V359.747H469.476H503.002L502.656 357.717C501.219 348.852 491.464 343.9 474.032 343.058C470.269 342.91 467.198 342.662 467.198 342.563C467.198 342.514 469.724 337.215 472.844 330.926C488.195 299.579 497.06 275.214 500.873 254.168C501.863 248.572 503.2 235.152 502.804 234.756C502.705 234.657 500.576 235.548 498.1 236.737C495.624 237.925 491.414 239.51 488.691 240.253C482.055 241.986 471.011 242.085 463.583 240.5C452.689 238.123 445.013 234.459 439.367 228.912L436 225.594V249.562Z" fill="black"/>
<path d="M582.088 249.562V273.679L586.941 269.074C596.498 259.912 606.204 254.762 613.781 254.762C616.653 254.762 618.139 255.555 619.327 257.733C620.12 259.219 620.268 260.259 620.07 264.666C619.872 271.451 618.832 274.274 611.998 287.05C605.61 299.084 596.399 317.407 593.23 324.587C586.445 339.889 582.088 353.012 582.088 358.311V359.747H615.514H648.941V358.608C648.941 357.964 648.594 356.429 648.149 355.142C645.772 348.11 635.719 343.801 620.12 343.058C616.356 342.91 613.286 342.662 613.286 342.563C613.286 342.464 615.415 338.156 617.99 333.006C636.907 295.271 647.455 263.379 648.793 240.054L649.09 234.359L645.425 236.192C633.788 242.085 621.704 243.273 607.591 239.906C597.736 237.578 589.961 233.617 584.712 228.169L582.088 225.396V249.562Z" fill="black"/>
<path d="M653.893 283.039C653.893 345.98 653.794 343.554 656.716 348.952C660.38 355.686 668.65 359.648 681.278 360.738C694.996 361.926 707.128 358.905 714.21 352.567C715.993 350.982 717.33 349.1 718.617 346.475L720.499 342.712L720.648 311.563C720.747 286.307 720.648 280.513 720.152 280.81C719.806 281.008 718.865 281.702 718.023 282.296C716.191 283.633 713.566 284.723 709.357 285.762C705.94 286.604 685.834 287.397 683.358 286.753L682.12 286.456V269.371V252.286H685.785C688.905 252.286 689.697 252.484 690.786 253.376C692.371 254.812 693.015 257.387 692.619 261.299L692.371 264.32L698.957 263.973C710.397 263.379 717.577 261.596 719.756 258.823C720.697 257.684 720.747 256.743 720.747 244.313C720.747 236.984 720.598 230.992 720.45 230.992C720.301 230.992 719.558 231.388 718.865 231.933C712.427 236.439 699.403 239.064 683.606 239.114C675.732 239.114 673.9 238.965 670.582 238.024C663.55 236.093 658.499 232.626 655.329 227.625L653.893 225.347V283.039ZM692.024 319.09V340.384L690.737 341.375C688.855 342.86 685.587 342.761 683.754 341.226L682.368 340.038L682.219 319.585C682.12 308.344 682.17 298.886 682.318 298.489C682.516 298.044 683.853 297.846 687.32 297.846H692.024V319.09Z" fill="black"/>
</mask>
<g mask="url(#mask0_1049_1223)">
<rect width="284.747" height="134.202" transform="matrix(-1 0 0 1 720.747 225.495)" fill="url(#paint0_linear_1049_1223)"/>
</g>
<mask id="mask1_1049_1223" style="mask-type:alpha" maskUnits="userSpaceOnUse" x="0" y="0" width="580" height="179">
<path d="M518.925 178.057C511.555 174.405 513.156 170.969 514.419 168.177C517.14 162.163 519.645 160.373 523.01 158.583C526.375 156.793 537.616 154.717 538.976 157.652C539.446 158.666 537.068 161.786 535.826 164.454C533.893 168.606 534.08 171.988 535.077 172.186C536.998 172.567 550.288 166.244 550.288 166.244C550.288 166.244 550.284 166.562 550.284 166.244C550.284 162.95 551.773 139.037 551.773 133.553C550.055 134.871 547.879 135.859 545.23 136.546C542.38 137.276 539.001 137.634 535.077 137.634C529.765 137.634 525.154 136.245 521.231 133.453C517.379 130.618 515.446 126.924 515.446 122.37C515.446 101.063 515.446 79.7568 515.446 58.4501C515.446 48.9566 515.446 43.1288 515.446 33.6496C526.257 41.611 529.56 41.5998 534.967 42.241C545.23 43.4581 550.022 43.0115 550.932 42.9569C562.889 42.241 580 14.6053 580 14.6053C580 14.6053 578.707 98.4001 578.707 134.599C578.707 141.744 578.192 169.365 575.342 174.047C572.564 178.787 563.3 178.057 548.637 178.057C547.621 178.057 541.191 178.057 540.189 178.057C531.87 178.057 532.819 178.057 518.925 178.057ZM551.773 116.485C551.773 96.825 551.773 77.165 551.773 57.4907C549.583 57.4907 547.406 57.4907 545.23 57.4907C543.64 57.4907 542.065 57.4907 540.49 57.4907C540.49 77.0934 540.49 96.6962 540.49 116.299C540.49 119.134 542.065 120.766 545.23 121.196C545.802 121.282 546.432 121.325 547.12 121.325C550.227 121.325 551.773 119.707 551.773 116.485Z" fill="url(#paint1_linear_1049_1223)"/>
<path d="M518.925 178.057C511.555 174.405 513.156 170.969 514.419 168.177C517.14 162.163 519.645 160.373 523.01 158.583C526.375 156.793 537.616 154.717 538.976 157.652C539.446 158.666 537.068 161.786 535.826 164.454C533.893 168.606 534.08 171.988 535.077 172.186C536.998 172.567 550.288 166.244 550.288 166.244C550.288 166.244 550.284 166.562 550.284 166.244C550.284 162.95 551.773 139.037 551.773 133.553C550.055 134.871 547.879 135.859 545.23 136.546C542.38 137.276 539.001 137.634 535.077 137.634C529.765 137.634 525.154 136.245 521.231 133.453C517.379 130.618 515.446 126.924 515.446 122.37C515.446 101.063 515.446 79.7568 515.446 58.4501C515.446 48.9566 515.446 43.1288 515.446 33.6496C526.257 41.611 529.56 41.5998 534.967 42.241C545.23 43.4581 550.022 43.0115 550.932 42.9569C562.889 42.241 580 14.6053 580 14.6053C580 14.6053 578.707 98.4001 578.707 134.599C578.707 141.744 578.192 169.365 575.342 174.047C572.564 178.787 563.3 178.057 548.637 178.057C547.621 178.057 541.191 178.057 540.189 178.057C531.87 178.057 532.819 178.057 518.925 178.057ZM551.773 116.485C551.773 96.825 551.773 77.165 551.773 57.4907C549.583 57.4907 547.406 57.4907 545.23 57.4907C543.64 57.4907 542.065 57.4907 540.49 57.4907C540.49 77.0934 540.49 96.6962 540.49 116.299C540.49 119.134 542.065 120.766 545.23 121.196C545.802 121.282 546.432 121.325 547.12 121.325C550.227 121.325 551.773 119.707 551.773 116.485Z" fill="url(#paint2_linear_1049_1223)"/>
<path d="M509.241 134.828C500.235 134.828 491.228 134.828 482.221 134.828C482.221 110.113 482.221 85.3842 482.221 60.6696C482.221 57.3189 480.675 55.6436 477.568 55.6436C476.021 55.6436 474.475 55.6436 472.928 55.6436C472.928 82.0335 472.928 108.438 472.928 134.828C463.921 134.828 454.9 134.828 445.894 134.828C445.894 98.1281 446.084 68.3589 446.084 31.645C446.084 31.645 471.471 44.4318 484.244 44.6753C499.093 44.7468 499.891 39.4488 509.241 32.8764C509.241 39.864 509.256 46.8517 509.241 53.8394C509.241 80.8307 509.256 107.836 509.241 134.828Z" fill="url(#paint3_linear_1049_1223)"/>
<path d="M328.84 133.553C328.84 159.156 319.862 178.057 301.906 178.057C301.906 138.637 301.906 80.6017 301.906 41.1814C306.359 42.7565 310.827 44.3459 315.28 45.921C318.373 45.8351 321.48 45.7349 324.573 45.6346C328.998 45.9497 334.253 45.7922 340.324 45.1621C346.452 44.5321 354.729 42.2554 365.167 38.332C365.167 45.0332 365.167 51.7345 365.167 58.4502C365.167 79.7568 365.167 101.064 365.167 122.37C365.167 126.981 363.263 130.675 359.468 133.453C355.674 136.245 351.063 137.634 345.622 137.634C338.104 137.634 332.506 136.274 328.84 133.553ZM338.233 115.54C338.233 96.195 338.233 76.8358 338.233 57.4908C335.14 58.7652 332.005 58.7652 328.84 57.4908C328.84 76.9074 328.84 96.3096 328.84 115.726C328.84 118.948 330.415 120.566 333.58 120.566C336.687 120.566 338.233 118.891 338.233 115.54ZM301.724 30.3563C301.724 30.3563 305.33 33.6246 308.969 36.943C310.173 38.0411 311.381 39.1446 312.463 40.137C314.023 41.5675 315.322 42.767 315.971 43.3866C318.491 45.6633 320.678 45.0762 333.393 45.8351C333.608 48.0402 333.837 50.2597 334.052 52.4648C327.609 52.0925 321.165 51.7059 314.707 51.3336C310.039 51.7059 306.774 50.7608 304.942 48.4841C301.645 44.3889 301.906 43.3866 301.724 36.1555C301.673 34.1486 301.724 33.0769 301.724 30.3563Z" fill="url(#paint4_linear_1049_1223)"/>
<path d="M328.84 133.553C328.84 159.156 319.862 178.057 301.906 178.057C301.906 138.637 301.906 80.6017 301.906 41.1814C306.359 42.7565 310.827 44.3459 315.28 45.921C318.373 45.8351 321.48 45.7349 324.573 45.6346C328.998 45.9497 334.253 45.7922 340.324 45.1621C346.452 44.5321 354.729 42.2554 365.167 38.332C365.167 45.0332 365.167 51.7345 365.167 58.4502C365.167 79.7568 365.167 101.064 365.167 122.37C365.167 126.981 363.263 130.675 359.468 133.453C355.674 136.245 351.063 137.634 345.622 137.634C338.104 137.634 332.506 136.274 328.84 133.553ZM338.233 115.54C338.233 96.195 338.233 76.8358 338.233 57.4908C335.14 58.7652 332.005 58.7652 328.84 57.4908C328.84 76.9074 328.84 96.3096 328.84 115.726C328.84 118.948 330.415 120.566 333.58 120.566C336.687 120.566 338.233 118.891 338.233 115.54ZM301.724 30.3563C301.724 30.3563 305.33 33.6246 308.969 36.943C310.173 38.0411 311.381 39.1446 312.463 40.137C314.023 41.5675 315.322 42.767 315.971 43.3866C318.491 45.6633 320.678 45.0762 333.393 45.8351C333.608 48.0402 333.837 50.2597 334.052 52.4648C327.609 52.0925 321.165 51.7059 314.707 51.3336C310.039 51.7059 306.774 50.7608 304.942 48.4841C301.645 44.3889 301.906 43.3866 301.724 36.1555C301.673 34.1486 301.724 33.0769 301.724 30.3563Z" fill="url(#paint5_linear_1049_1223)"/>
<path d="M292.036 136.116C283.058 136.116 274.08 136.116 265.102 136.116C265.102 110.8 265.102 85.4701 265.102 60.1541C263.541 60.1541 261.995 60.1541 260.449 60.1541C257.284 60.1541 255.709 61.7579 255.709 64.9939C255.709 88.6919 255.709 112.404 255.709 136.116C246.731 136.116 237.753 136.116 228.775 136.116C228.775 112.404 228.775 88.6919 228.775 64.9939C228.775 61.6433 227.228 59.968 224.121 59.968C222.546 59.968 220.971 59.968 219.382 59.968C219.382 85.3413 219.382 110.729 219.382 136.116C210.404 136.116 201.426 136.116 192.448 136.116C192.448 99.4168 192.91 70.7216 192.91 34.0076C206.904 38.5754 208.513 41.4249 219.382 40.1648C219.382 41.4535 219.382 45.6776 219.382 46.9663C223.119 43.8734 228.703 42.327 236.178 42.327C242.435 42.327 248.12 44.8185 253.246 49.8158C270.887 44.8185 283.817 37.3869 292.036 30.3563C292.036 39.1768 292.036 49.4292 292.036 58.2497C292.036 84.2101 292.036 110.156 292.036 136.116Z" fill="url(#paint6_linear_1049_1223)"/>
<path d="M113.414 138.98C102.474 138.98 91.5345 138.98 80.5948 138.98C76.7716 122.155 72.9484 89.7086 69.1252 72.8837C69.1252 89.7086 69.1252 122.155 69.1252 138.98C59.1592 138.98 51.0846 138.98 39.2415 138.98C37.5661 138.98 7.54508 138.859 3.11483 136.603C-0.821846 134.599 -0.589261 129.416 1.40102 125.22C4.0498 119.635 12.3247 116.308 13.2855 115.984C13.7949 115.812 22.4529 112.999 24.0932 116.986C24.7858 118.67 23.1502 122.152 22.5897 125.22C21.9051 128.968 20.5539 131.623 20.8715 131.52C29.1235 128.85 30.9117 127.652 31.9683 127.153C39.2415 123.716 39.2415 121.893 39.2415 118.404C39.2415 81.3498 39.4175 37.0572 39.4175 0C39.4175 0 54.706 26.5617 69.1252 26.6906C69.1252 33.8931 69.1252 65.6813 69.1252 72.8837C73.1632 65.0512 76.6183 33.9647 80.6563 26.1322C91.7965 25.6167 106.43 16.4669 106.43 16.4669C99.4571 35.7259 98.4936 45.7492 91.5059 65.0083C98.8086 89.6656 106.111 114.323 113.414 138.98Z" fill="url(#paint7_linear_1049_1223)"/>
<path d="M113.414 138.98C102.474 138.98 91.5345 138.98 80.5948 138.98C76.7716 122.155 72.9484 89.7086 69.1252 72.8837C69.1252 89.7086 69.1252 122.155 69.1252 138.98C59.1592 138.98 51.0846 138.98 39.2415 138.98C37.5661 138.98 7.54508 138.859 3.11483 136.603C-0.821846 134.599 -0.589261 129.416 1.40102 125.22C4.0498 119.635 12.3247 116.308 13.2855 115.984C13.7949 115.812 22.4529 112.999 24.0932 116.986C24.7858 118.67 23.1502 122.152 22.5897 125.22C21.9051 128.968 20.5539 131.623 20.8715 131.52C29.1235 128.85 30.9117 127.652 31.9683 127.153C39.2415 123.716 39.2415 121.893 39.2415 118.404C39.2415 81.3498 39.4175 37.0572 39.4175 0C39.4175 0 54.706 26.5617 69.1252 26.6906C69.1252 33.8931 69.1252 65.6813 69.1252 72.8837C73.1632 65.0512 76.6183 33.9647 80.6563 26.1322C91.7965 25.6167 106.43 16.4669 106.43 16.4669C99.4571 35.7259 98.4936 45.7492 91.5059 65.0083C98.8086 89.6656 106.111 114.323 113.414 138.98Z" fill="url(#paint8_linear_1049_1223)"/>
<path d="M184.629 138.193C168.707 138.193 160.731 136.775 160.731 133.926C158.712 137.777 152.927 139.71 143.376 139.71C128.656 139.71 121.282 133.954 121.282 122.456C121.282 118.563 121.282 113.745 121.282 109.469C121.282 105.644 121.282 102.254 121.282 100.348C121.282 96.3095 122.127 90.0236 126.15 86.9879C130.265 83.8839 137.405 79.1984 148.216 73.6999C154.473 70.5354 157.609 68.0152 157.609 66.1108C157.609 63.3043 157.609 60.4834 157.609 57.6769C156.063 57.6769 154.516 57.6769 152.956 57.6769C149.419 57.6769 147.744 59.9823 147.93 64.593C148.187 67.7002 148.316 70.0342 148.316 71.6093C139.625 71.6093 130.933 71.6093 122.227 71.6093C122.227 68.0725 122.227 64.5357 122.227 60.9989C122.227 54.1974 122.227 47.3958 122.227 40.6086C147.4 50.1451 158.945 48.0402 184.644 40.6086C184.629 47.7109 184.629 54.8274 184.629 61.944C184.629 87.3602 184.629 112.776 184.629 138.193ZM157.609 117.616C157.609 108.166 157.609 98.7008 157.609 89.2503C151.409 90.7681 148.316 93.5603 148.316 97.5983C148.316 104.271 148.316 110.944 148.316 117.616C148.316 120.967 149.92 122.642 153.156 122.642C156.12 122.642 157.609 120.967 157.609 117.616ZM184.644 38.6613C184.641 41.8831 182.267 50.8467 182.267 50.8467L171.871 53.8108H161.848C161.848 53.8108 153.715 52.8657 153.715 50.6606C166.358 48.1261 162.31 45.8924 167.608 45.0809C171.041 44.5551 184.629 36.0839 184.629 36.0839C184.629 36.0839 184.644 37.8017 184.644 38.6613Z" fill="url(#paint9_linear_1049_1223)"/>
<path d="M438.133 134.613C429.155 134.613 420.177 134.613 411.199 134.613C411.199 133.381 411.199 132.15 411.199 130.919C407.72 134.398 402.149 136.131 394.503 136.131C389.191 136.131 384.58 134.742 380.657 131.95C376.805 129.114 374.872 125.42 374.872 120.867C374.872 88.7491 375.062 68.946 375.062 36.8284C384.04 44.6752 392.828 40.1791 401.806 48.0259C401.806 70.0342 401.806 92.0282 401.806 114.037C401.806 117.387 403.381 119.062 406.545 119.062C409.653 119.062 411.199 117.444 411.199 114.223C411.199 93.1737 411.199 72.1105 411.199 51.0615C420.177 47.582 429.155 44.1025 438.133 40.623C438.133 71.953 438.133 103.283 438.133 134.613ZM438.133 35.9407C438.133 41.8258 437.689 45.7492 436.043 48.212C434.468 50.6176 431.017 52.1354 425.704 52.7655C420.907 53.3955 416.096 54.0256 411.299 54.6699C411.299 52.4505 411.299 50.231 411.299 48.0259C421.409 46.1215 427.609 43.9163 429.885 41.3819C432.162 38.8617 438.133 33.0769 438.133 33.0769C438.133 33.0769 438.133 33.0769 438.133 35.9407Z" fill="url(#paint10_linear_1049_1223)"/>
</mask>
<g mask="url(#mask1_1049_1223)">
<rect width="579.859" height="195.313" transform="matrix(-1 0 0 1 582.139 -3.03992)" fill="url(#paint11_linear_1049_1223)"/>
</g>
<mask id="mask2_1049_1223" style="mask-type:alpha" maskUnits="userSpaceOnUse" x="617" y="4" width="447" height="178">
<path d="M1063.98 142.292C1047.31 142.292 1038.95 140.807 1038.95 137.822C1036.84 141.857 1030.78 143.881 1020.78 143.881C1005.36 143.881 997.636 137.852 997.636 125.809C997.636 121.732 997.636 116.685 997.636 112.207C997.636 108.201 997.636 104.65 997.636 102.653C997.636 98.4241 998.52 91.8403 1002.73 88.6608C1007.04 85.4097 1014.52 80.5021 1025.85 74.7431C1032.4 71.4286 1035.68 68.7891 1035.68 66.7944C1035.68 63.8549 1035.68 60.9004 1035.68 57.9609C1034.06 57.9609 1032.45 57.9609 1030.81 57.9609C1027.11 57.9609 1025.35 60.3755 1025.55 65.2047C1025.82 68.4591 1025.95 70.9037 1025.95 72.5535C1016.85 72.5535 1007.74 72.5535 998.626 72.5535C998.626 68.8491 998.626 65.1447 998.626 61.4403C998.626 54.3165 998.626 47.1927 998.626 40.0839C1024.99 50.0722 1037.08 47.8676 1064 40.0839C1063.98 47.5227 1063.98 54.9764 1063.98 62.4302C1063.98 89.0507 1063.98 115.671 1063.98 142.292ZM1035.68 120.74C1035.68 110.842 1035.68 100.929 1035.68 91.0303C1029.19 92.6201 1025.95 95.5446 1025.95 99.7739C1025.95 106.763 1025.95 113.752 1025.95 120.74C1025.95 124.25 1027.63 126.004 1031.02 126.004C1034.12 126.004 1035.68 124.25 1035.68 120.74ZM1064 38.0443C1064 41.4187 1061.51 50.8071 1061.51 50.8071L1050.62 53.9116H1040.12C1040.12 53.9116 1031.61 52.9218 1031.61 50.6122C1044.85 47.9576 1040.61 45.618 1046.16 44.7681C1049.75 44.2173 1064 24.0966 1064 24.0966C1064 24.0966 1064 37.144 1064 38.0443Z" fill="url(#paint12_linear_1049_1223)"/>
<path d="M1063.98 142.292C1047.31 142.292 1038.95 140.807 1038.95 137.822C1036.84 141.857 1030.78 143.881 1020.78 143.881C1005.36 143.881 997.636 137.852 997.636 125.809C997.636 121.732 997.636 116.685 997.636 112.207C997.636 108.201 997.636 104.65 997.636 102.653C997.636 98.4241 998.52 91.8403 1002.73 88.6608C1007.04 85.4097 1014.52 80.5021 1025.85 74.7431C1032.4 71.4286 1035.68 68.7891 1035.68 66.7944C1035.68 63.8549 1035.68 60.9004 1035.68 57.9609C1034.06 57.9609 1032.45 57.9609 1030.81 57.9609C1027.11 57.9609 1025.35 60.3755 1025.55 65.2047C1025.82 68.4591 1025.95 70.9037 1025.95 72.5535C1016.85 72.5535 1007.74 72.5535 998.626 72.5535C998.626 68.8491 998.626 65.1447 998.626 61.4403C998.626 54.3165 998.626 47.1927 998.626 40.0839C1024.99 50.0722 1037.08 47.8676 1064 40.0839C1063.98 47.5227 1063.98 54.9764 1063.98 62.4302C1063.98 89.0507 1063.98 115.671 1063.98 142.292ZM1035.68 120.74C1035.68 110.842 1035.68 100.929 1035.68 91.0303C1029.19 92.6201 1025.95 95.5446 1025.95 99.7739C1025.95 106.763 1025.95 113.752 1025.95 120.74C1025.95 124.25 1027.63 126.004 1031.02 126.004C1034.12 126.004 1035.68 124.25 1035.68 120.74ZM1064 38.0443C1064 41.4187 1061.51 50.8071 1061.51 50.8071L1050.62 53.9116H1040.12C1040.12 53.9116 1031.61 52.9218 1031.61 50.6122C1044.85 47.9576 1040.61 45.618 1046.16 44.7681C1049.75 44.2173 1064 24.0966 1064 24.0966C1064 24.0966 1064 37.144 1064 38.0443Z" fill="url(#paint13_linear_1049_1223)"/>
<path d="M912.06 142.292C895.383 142.292 887.03 140.807 887.03 137.822C884.915 141.857 878.856 143.881 868.853 143.881C853.435 143.881 845.711 137.852 845.711 125.81C845.711 121.732 845.711 116.686 845.711 112.207C845.711 108.201 845.711 104.65 845.711 102.653C845.711 98.4241 846.596 91.8403 850.81 88.6608C855.12 85.4097 862.599 80.5022 873.922 74.7431C880.476 71.4287 883.76 68.7891 883.76 66.7945C883.76 63.855 883.76 60.9004 883.76 57.9609C882.14 57.9609 880.521 57.9609 878.886 57.9609C875.181 57.9609 873.427 60.3755 873.622 65.2047C873.892 68.4592 874.027 70.9038 874.027 72.5535C864.923 72.5535 855.82 72.5535 846.701 72.5535C846.701 68.8491 846.701 65.1447 846.701 61.4404C846.701 54.3166 846.701 47.1928 846.701 40.084C873.067 50.0723 885.159 47.8677 912.075 40.084C912.06 47.5227 912.06 54.9764 912.06 62.4302C912.06 89.0507 912.06 115.671 912.06 142.292ZM883.76 120.74C883.76 110.842 883.76 100.929 883.76 91.0304C877.266 92.6201 874.027 95.5446 874.027 99.7739C874.027 106.763 874.027 113.752 874.027 120.74C874.027 124.25 875.706 126.004 879.096 126.004C882.2 126.004 883.76 124.25 883.76 120.74ZM912.075 38.0443C912.073 41.4188 909.586 50.8071 909.586 50.8071L898.698 53.9116H888.199C888.199 53.9116 879.681 52.9218 879.681 50.6122C892.923 47.9576 888.684 45.6181 894.233 44.7681C897.828 44.2174 912.06 35.3448 912.06 35.3448C912.06 35.3448 912.076 37.144 912.075 38.0443Z" fill="url(#paint14_linear_1049_1223)"/>
<path d="M912.06 142.292C895.383 142.292 887.03 140.807 887.03 137.822C884.915 141.857 878.856 143.881 868.853 143.881C853.435 143.881 845.711 137.852 845.711 125.81C845.711 121.732 845.711 116.686 845.711 112.207C845.711 108.201 845.711 104.65 845.711 102.653C845.711 98.4241 846.596 91.8403 850.81 88.6608C855.12 85.4097 862.599 80.5022 873.922 74.7431C880.476 71.4287 883.76 68.7891 883.76 66.7945C883.76 63.855 883.76 60.9004 883.76 57.9609C882.14 57.9609 880.521 57.9609 878.886 57.9609C875.181 57.9609 873.427 60.3755 873.622 65.2047C873.892 68.4592 874.027 70.9038 874.027 72.5535C864.923 72.5535 855.82 72.5535 846.701 72.5535C846.701 68.8491 846.701 65.1447 846.701 61.4404C846.701 54.3166 846.701 47.1928 846.701 40.084C873.067 50.0723 885.159 47.8677 912.075 40.084C912.06 47.5227 912.06 54.9764 912.06 62.4302C912.06 89.0507 912.06 115.671 912.06 142.292ZM883.76 120.74C883.76 110.842 883.76 100.929 883.76 91.0304C877.266 92.6201 874.027 95.5446 874.027 99.7739C874.027 106.763 874.027 113.752 874.027 120.74C874.027 124.25 875.706 126.004 879.096 126.004C882.2 126.004 883.76 124.25 883.76 120.74ZM912.075 38.0443C912.073 41.4188 909.586 50.8071 909.586 50.8071L898.698 53.9116H888.199C888.199 53.9116 879.681 52.9218 879.681 50.6122C892.923 47.9576 888.684 45.6181 894.233 44.7681C897.828 44.2174 912.06 35.3448 912.06 35.3448C912.06 35.3448 912.076 37.144 912.075 38.0443Z" fill="url(#paint15_linear_1049_1223)"/>
<path d="M762.445 141.692C753.042 141.692 743.639 141.692 734.235 141.692C734.235 140.402 734.235 139.112 734.235 137.823C730.591 141.467 724.757 143.282 716.748 143.282C711.184 143.282 706.355 141.827 702.246 138.902C698.211 135.933 696.187 132.063 696.187 127.294C696.187 93.6549 696.386 72.9134 696.386 39.2741C705.789 47.4927 714.993 42.7835 724.397 51.0021C724.397 74.0532 724.397 97.0894 724.397 120.14C724.397 123.65 726.047 125.405 729.361 125.405C732.615 125.405 734.235 123.71 734.235 120.335C734.235 98.2892 734.235 76.2279 734.235 54.1816C743.639 50.5372 753.042 46.8928 762.445 43.2484C762.445 76.0629 762.445 108.877 762.445 141.692ZM762.445 38.3443C762.445 44.5082 761.981 48.6175 760.256 51.1971C758.606 53.7167 754.992 55.3064 749.428 55.9663C744.403 56.6262 739.364 57.2861 734.34 57.961C734.34 55.6363 734.34 53.3117 734.34 51.0021C744.928 49.0075 751.422 46.6978 753.807 44.0433C756.192 41.4037 762.445 35.3448 762.445 35.3448C762.445 35.3448 762.445 35.3448 762.445 38.3443Z" fill="url(#paint16_linear_1049_1223)"/>
<path d="M762.445 141.692C753.042 141.692 743.639 141.692 734.235 141.692C734.235 140.402 734.235 139.112 734.235 137.823C730.591 141.467 724.757 143.282 716.748 143.282C711.184 143.282 706.355 141.827 702.246 138.902C698.211 135.933 696.187 132.063 696.187 127.294C696.187 93.6549 696.386 72.9134 696.386 39.2741C705.789 47.4927 714.993 42.7835 724.397 51.0021C724.397 74.0532 724.397 97.0894 724.397 120.14C724.397 123.65 726.047 125.405 729.361 125.405C732.615 125.405 734.235 123.71 734.235 120.335C734.235 98.2892 734.235 76.2279 734.235 54.1816C743.639 50.5372 753.042 46.8928 762.445 43.2484C762.445 76.0629 762.445 108.877 762.445 141.692ZM762.445 38.3443C762.445 44.5082 761.981 48.6175 760.256 51.1971C758.606 53.7167 754.992 55.3064 749.428 55.9663C744.403 56.6262 739.364 57.2861 734.34 57.961C734.34 55.6363 734.34 53.3117 734.34 51.0021C744.928 49.0075 751.422 46.6978 753.807 44.0433C756.192 41.4037 762.445 35.3448 762.445 35.3448C762.445 35.3448 762.445 35.3448 762.445 38.3443Z" fill="url(#paint17_linear_1049_1223)"/>
<path d="M990.437 35.1947C983.253 73.4083 979.44 99.7289 972.257 137.927C969.992 149.655 966.512 173.531 964.863 177.131C962.48 182.329 953.019 181.105 946.27 181.105C939.686 181.105 934.407 181.105 927.823 181.105C927.823 181.105 918.904 181.105 915.75 181.105C910.276 181.105 910.201 176.456 910.201 174.431C910.201 171.147 911.55 168.447 913.575 165.073C914.835 162.973 917.331 161.623 920.774 160.199C926.773 157.716 935.246 160.409 934.572 161.983C933.897 163.558 933.023 165.433 932.247 167.158C931.173 169.543 928.723 174.431 928.723 174.431C943.795 170.307 944.995 168.132 944.995 168.132C944.995 168.132 945.755 158.698 946.27 154.71C947.604 144.361 947.919 141.497 947.919 137.927C947.919 134.343 939.967 117.696 931.823 83.9965C926.919 63.7349 924.688 57.346 919.799 37.0694C929.232 43.2933 945.82 43.0684 945.82 43.0684C949.764 57.166 953.315 70.0939 957.244 84.1915C959.704 70.4838 962.148 56.7761 964.608 43.0684C978.316 45.1231 978.424 62.6401 990.437 35.1947ZM988.937 41.3437C987.873 47.4477 989.264 45.0931 987.149 47.3427C985.034 49.5323 981.169 54.8864 976.34 54.0166C971.96 53.8216 967.982 48.9324 963.603 48.7375C964.008 46.4428 964.398 44.1632 964.803 41.8836C973.411 42.2735 977.935 41.7388 981.964 40.1439C986.017 38.5392 990.437 35.1947 990.437 35.1947C989.777 38.9741 989.597 37.5793 988.937 41.3437Z" fill="url(#paint18_linear_1049_1223)"/>
<path d="M990.437 35.1947C983.253 73.4083 979.44 99.7289 972.257 137.927C969.992 149.655 966.512 173.531 964.863 177.131C962.48 182.329 953.019 181.105 946.27 181.105C939.686 181.105 934.407 181.105 927.823 181.105C927.823 181.105 918.904 181.105 915.75 181.105C910.276 181.105 910.201 176.456 910.201 174.431C910.201 171.147 911.55 168.447 913.575 165.073C914.835 162.973 917.331 161.623 920.774 160.199C926.773 157.716 935.246 160.409 934.572 161.983C933.897 163.558 933.023 165.433 932.247 167.158C931.173 169.543 928.723 174.431 928.723 174.431C943.795 170.307 944.995 168.132 944.995 168.132C944.995 168.132 945.755 158.698 946.27 154.71C947.604 144.361 947.919 141.497 947.919 137.927C947.919 134.343 939.967 117.696 931.823 83.9965C926.919 63.7349 924.688 57.346 919.799 37.0694C929.232 43.2933 945.82 43.0684 945.82 43.0684C949.764 57.166 953.315 70.0939 957.244 84.1915C959.704 70.4838 962.148 56.7761 964.608 43.0684C978.316 45.1231 978.424 62.6401 990.437 35.1947ZM988.937 41.3437C987.873 47.4477 989.264 45.0931 987.149 47.3427C985.034 49.5323 981.169 54.8864 976.34 54.0166C971.96 53.8216 967.982 48.9324 963.603 48.7375C964.008 46.4428 964.398 44.1632 964.803 41.8836C973.411 42.2735 977.935 41.7388 981.964 40.1439C986.017 38.5392 990.437 35.1947 990.437 35.1947C989.777 38.9741 989.597 37.5793 988.937 41.3437Z" fill="url(#paint19_linear_1049_1223)"/>
<path d="M815.042 137.822C809.613 141.452 804.124 143.281 798.56 143.281C791.406 143.281 785.272 141.587 780.173 138.212C775.073 134.838 772.524 130.234 772.524 124.415C772.524 101.424 772.524 78.4474 772.524 55.4713C772.524 47.7926 772.524 42.6635 772.524 34.9697C781.072 39.679 787.896 40.1438 792.995 41.4636C799.354 42.1235 805.203 42.1535 810.573 41.5686C810.573 37.6543 810.573 27.336 810.573 23.4217C823.95 18.5175 839.131 13.2984 839.131 13.2984C839.131 60.7804 838.783 94.2097 838.783 141.692C824.55 141.692 816.632 140.402 815.042 137.822ZM800.734 120.14C800.734 123.65 802.369 125.404 805.608 125.404C808.923 125.404 810.573 123.65 810.573 120.14C810.573 99.2039 810.573 78.2824 810.573 57.3609C808.923 57.3609 807.258 57.3609 805.608 57.3609C802.369 57.3609 800.734 59.1157 800.734 62.6251C800.734 81.7918 800.734 100.959 800.734 120.14Z" fill="url(#paint20_linear_1049_1223)"/>
<path d="M815.042 137.822C809.613 141.452 804.124 143.281 798.56 143.281C791.406 143.281 785.272 141.587 780.173 138.212C775.073 134.838 772.524 130.234 772.524 124.415C772.524 101.424 772.524 78.4474 772.524 55.4713C772.524 47.7926 772.524 42.6635 772.524 34.9697C781.072 39.679 787.896 40.1438 792.995 41.4636C799.354 42.1235 805.203 42.1535 810.573 41.5686C810.573 37.6543 810.573 27.336 810.573 23.4217C823.95 18.5175 839.131 13.2984 839.131 13.2984C839.131 60.7804 838.783 94.2097 838.783 141.692C824.55 141.692 816.632 140.402 815.042 137.822ZM800.734 120.14C800.734 123.65 802.369 125.404 805.608 125.404C808.923 125.404 810.573 123.65 810.573 120.14C810.573 99.2039 810.573 78.2824 810.573 57.3609C808.923 57.3609 807.258 57.3609 805.608 57.3609C802.369 57.3609 800.734 59.1157 800.734 62.6251C800.734 81.7918 800.734 100.959 800.734 120.14Z" fill="url(#paint21_linear_1049_1223)"/>
<path d="M617.495 143.266C617.495 103.073 617.51 62.88 617.495 22.6718C640.681 22.6718 663.852 22.6718 687.038 22.6718C687.038 28.1009 687.038 33.53 687.038 38.9741C687.038 41.2537 687.038 43.5333 687.038 45.8279C687.038 55.8162 680.949 62.88 668.756 66.9744C681.609 70.1538 688.028 77.0077 688.028 87.5359C688.028 96.7443 688.028 105.953 688.028 115.161C688.028 124.565 684.954 131.613 678.79 136.308C672.701 140.957 665.412 143.266 656.938 143.266C643.786 143.266 630.648 143.266 617.495 143.266ZM657.538 50.8821C657.538 46.6228 657.538 42.3485 657.538 38.0742C654.614 38.0742 651.704 38.0742 648.795 38.0742C648.795 44.8681 648.795 51.6469 648.795 58.4408C654.614 58.4408 657.538 55.9212 657.538 50.8821ZM657.538 117.441C657.538 105.428 657.538 93.3999 657.538 81.3869C657.538 76.4228 654.614 73.9332 648.795 73.9332C648.795 90.9553 648.795 107.977 648.795 124.985C654.614 124.985 657.538 122.465 657.538 117.441ZM617 4C617 4 626.943 18.3675 634.892 19.7023C642.901 21.0221 649.26 21.682 653.954 21.682C658.723 21.682 664.722 21.0221 671.936 19.7023C679.15 18.3675 687.038 13.9733 687.038 13.9733C687.038 13.9733 687.038 17.1678 687.038 20.8722C687.038 28.8808 686.378 28.5658 684.459 30.2306C682.599 31.8203 679.06 32.6151 673.826 32.6151C659.383 32.6151 644.955 32.6151 630.513 32.6151C625.144 32.6151 621.544 31.3554 619.685 28.8358C617.9 26.2562 617 21.4721 617 15.773C617 11.9337 617 7.85435 617 4Z" fill="url(#paint22_linear_1049_1223)"/>
<path d="M617.495 143.266C617.495 103.073 617.51 62.88 617.495 22.6718C640.681 22.6718 663.852 22.6718 687.038 22.6718C687.038 28.1009 687.038 33.53 687.038 38.9741C687.038 41.2537 687.038 43.5333 687.038 45.8279C687.038 55.8162 680.949 62.88 668.756 66.9744C681.609 70.1538 688.028 77.0077 688.028 87.5359C688.028 96.7443 688.028 105.953 688.028 115.161C688.028 124.565 684.954 131.613 678.79 136.308C672.701 140.957 665.412 143.266 656.938 143.266C643.786 143.266 630.648 143.266 617.495 143.266ZM657.538 50.8821C657.538 46.6228 657.538 42.3485 657.538 38.0742C654.614 38.0742 651.704 38.0742 648.795 38.0742C648.795 44.8681 648.795 51.6469 648.795 58.4408C654.614 58.4408 657.538 55.9212 657.538 50.8821ZM657.538 117.441C657.538 105.428 657.538 93.3999 657.538 81.3869C657.538 76.4228 654.614 73.9332 648.795 73.9332C648.795 90.9553 648.795 107.977 648.795 124.985C654.614 124.985 657.538 122.465 657.538 117.441ZM617 4C617 4 626.943 18.3675 634.892 19.7023C642.901 21.0221 649.26 21.682 653.954 21.682C658.723 21.682 664.722 21.0221 671.936 19.7023C679.15 18.3675 687.038 13.9733 687.038 13.9733C687.038 13.9733 687.038 17.1678 687.038 20.8722C687.038 28.8808 686.378 28.5658 684.459 30.2306C682.599 31.8203 679.06 32.6151 673.826 32.6151C659.383 32.6151 644.955 32.6151 630.513 32.6151C625.144 32.6151 621.544 31.3554 619.685 28.8358C617.9 26.2562 617 21.4721 617 15.773C617 11.9337 617 7.85435 617 4Z" fill="url(#paint23_linear_1049_1223)"/>
</mask>
<g mask="url(#mask2_1049_1223)">
<rect x="621.776" y="7.97995" width="447.342" height="177.504" fill="url(#paint24_linear_1049_1223)"/>
</g>
<defs>
<linearGradient id="paint0_linear_1049_1223" x1="2.6155" y1="66.2723" x2="281.377" y2="67.6478" gradientUnits="userSpaceOnUse">
<stop stop-color="#BE8800"/>
<stop offset="0.206231" stop-color="#E6CE92"/>
<stop offset="0.518895" stop-color="#FFFAF1"/>
<stop offset="0.781429" stop-color="#E6CE92"/>
<stop offset="1" stop-color="#CDA236"/>
</linearGradient>
<linearGradient id="paint1_linear_1049_1223" x1="546.668" y1="14.6053" x2="546.668" y2="178.097" gradientUnits="userSpaceOnUse">
<stop stop-color="#FFB800"/>
<stop offset="1" stop-color="#5B1D10"/>
</linearGradient>
<linearGradient id="paint2_linear_1049_1223" x1="335.23" y1="-156.555" x2="1118.5" y2="-80.1477" gradientUnits="userSpaceOnUse">
<stop offset="0.0521827" stop-color="#E6CE92"/>
<stop offset="0.518895" stop-color="#FFFAF1"/>
<stop offset="0.781429" stop-color="#E6CE92"/>
<stop offset="1" stop-color="#CDA236"/>
</linearGradient>
<linearGradient id="paint3_linear_1049_1223" x1="276.63" y1="-76.3773" x2="1012.22" y2="31.6747" gradientUnits="userSpaceOnUse">
<stop offset="0.0521827" stop-color="#E6CE92"/>
<stop offset="0.518895" stop-color="#FFFAF1"/>
<stop offset="0.781429" stop-color="#E6CE92"/>
<stop offset="1" stop-color="#CDA236"/>
</linearGradient>
<linearGradient id="paint4_linear_1049_1223" x1="333.434" y1="30.3563" x2="333.434" y2="178.057" gradientUnits="userSpaceOnUse">
<stop stop-color="#FFB800"/>
<stop offset="1" stop-color="#5B1D10"/>
</linearGradient>
<linearGradient id="paint5_linear_1049_1223" x1="204.053" y1="69.1575" x2="799.946" y2="253.596" gradientUnits="userSpaceOnUse">
<stop offset="0.206231" stop-color="#E6CE92"/>
<stop offset="0.518895" stop-color="#FFFAF1"/>
<stop offset="0.781429" stop-color="#E6CE92"/>
<stop offset="1" stop-color="#CDA236"/>
</linearGradient>
<linearGradient id="paint6_linear_1049_1223" x1="29.259" y1="30.3989" x2="1233.95" y2="485.543" gradientUnits="userSpaceOnUse">
<stop stop-color="#BE8800"/>
<stop offset="0.206231" stop-color="#E6CE92"/>
<stop offset="0.518895" stop-color="#FFFAF1"/>
<stop offset="0.781429" stop-color="#E6CE92"/>
<stop offset="1" stop-color="#CDA236"/>
</linearGradient>
<linearGradient id="paint7_linear_1049_1223" x1="56.707" y1="0" x2="56.707" y2="138.98" gradientUnits="userSpaceOnUse">
<stop stop-color="#FFB800"/>
<stop offset="1" stop-color="#5B1D10"/>
</linearGradient>
<linearGradient id="paint8_linear_1049_1223" x1="0.561262" y1="121.31" x2="1284.54" y2="413.867" gradientUnits="userSpaceOnUse">
<stop stop-color="#BE8800"/>
<stop offset="0.206231" stop-color="#E6CE92"/>
<stop offset="0.518895" stop-color="#FFFAF1"/>
<stop offset="0.781429" stop-color="#E6CE92"/>
<stop offset="1" stop-color="#CDA236"/>
</linearGradient>
<linearGradient id="paint9_linear_1049_1223" x1="76.7572" y1="88.1568" x2="842.482" y2="260.246" gradientUnits="userSpaceOnUse">
<stop stop-color="#BE8800"/>
<stop offset="0.206231" stop-color="#E6CE92"/>
<stop offset="0.518895" stop-color="#FFFAF1"/>
<stop offset="0.781429" stop-color="#E6CE92"/>
<stop offset="1" stop-color="#CDA236"/>
</linearGradient>
<linearGradient id="paint10_linear_1049_1223" x1="277.537" y1="60.1493" x2="821.965" y2="300.884" gradientUnits="userSpaceOnUse">
<stop offset="0.0521827" stop-color="#E6CE92"/>
<stop offset="0.518895" stop-color="#FFFAF1"/>
<stop offset="0.781429" stop-color="#E6CE92"/>
<stop offset="1" stop-color="#CDA236"/>
</linearGradient>
<linearGradient id="paint11_linear_1049_1223" x1="-651.568" y1="97.6565" x2="572.96" y2="104.971" gradientUnits="userSpaceOnUse">
<stop offset="0.518895" stop-color="#FFFAF1"/>
<stop offset="0.781429" stop-color="#E6CE92"/>
<stop offset="1" stop-color="#CDA236"/>
</linearGradient>
<linearGradient id="paint12_linear_1049_1223" x1="1030.82" y1="24.0966" x2="1030.82" y2="143.881" gradientUnits="userSpaceOnUse">
<stop stop-color="#FFB800"/>
<stop offset="1" stop-color="#5B1D10"/>
</linearGradient>
<linearGradient id="paint13_linear_1049_1223" x1="1028.15" y1="147.282" x2="1038.42" y2="-171.842" gradientUnits="userSpaceOnUse">
<stop stop-color="#BE8800"/>
<stop offset="0.206231" stop-color="#E6CE92"/>
<stop offset="0.518895" stop-color="#FFFAF1"/>
<stop offset="0.781429" stop-color="#E6CE92"/>
<stop offset="1" stop-color="#CDA236"/>
</linearGradient>
<linearGradient id="paint14_linear_1049_1223" x1="878.893" y1="35.3448" x2="878.893" y2="143.881" gradientUnits="userSpaceOnUse">
<stop stop-color="#FFB800"/>
<stop offset="1" stop-color="#5B1D10"/>
</linearGradient>
<linearGradient id="paint15_linear_1049_1223" x1="876.23" y1="146.963" x2="884.661" y2="-142.248" gradientUnits="userSpaceOnUse">
<stop stop-color="#BE8800"/>
<stop offset="0.206231" stop-color="#E6CE92"/>
<stop offset="0.518895" stop-color="#FFFAF1"/>
<stop offset="0.781429" stop-color="#E6CE92"/>
<stop offset="1" stop-color="#CDA236"/>
</linearGradient>
<linearGradient id="paint16_linear_1049_1223" x1="729.316" y1="35.3448" x2="729.316" y2="143.282" gradientUnits="userSpaceOnUse">
<stop stop-color="#FFB800"/>
<stop offset="1" stop-color="#5B1D10"/>
</linearGradient>
<linearGradient id="paint17_linear_1049_1223" x1="726.657" y1="146.346" x2="735.008" y2="-141.268" gradientUnits="userSpaceOnUse">
<stop stop-color="#BE8800"/>
<stop offset="0.206231" stop-color="#E6CE92"/>
<stop offset="0.518895" stop-color="#FFFAF1"/>
<stop offset="0.781429" stop-color="#E6CE92"/>
<stop offset="1" stop-color="#CDA236"/>
</linearGradient>
<linearGradient id="paint18_linear_1049_1223" x1="950.319" y1="35.1947" x2="950.319" y2="181.231" gradientUnits="userSpaceOnUse">
<stop stop-color="#FFB800"/>
<stop offset="1" stop-color="#5B1D10"/>
</linearGradient>
<linearGradient id="paint19_linear_1049_1223" x1="947.099" y1="185.376" x2="959.72" y2="-203.677" gradientUnits="userSpaceOnUse">
<stop stop-color="#BE8800"/>
<stop offset="0.206231" stop-color="#E6CE92"/>
<stop offset="0.518895" stop-color="#FFFAF1"/>
<stop offset="0.781429" stop-color="#E6CE92"/>
<stop offset="1" stop-color="#CDA236"/>
</linearGradient>
<linearGradient id="paint20_linear_1049_1223" x1="805.828" y1="13.2984" x2="805.828" y2="143.281" gradientUnits="userSpaceOnUse">
<stop stop-color="#FFB800"/>
<stop offset="1" stop-color="#5B1D10"/>
</linearGradient>
<linearGradient id="paint21_linear_1049_1223" x1="803.155" y1="146.972" x2="815.198" y2="-199.261" gradientUnits="userSpaceOnUse">
<stop stop-color="#BE8800"/>
<stop offset="0.206231" stop-color="#E6CE92"/>
<stop offset="0.518895" stop-color="#FFFAF1"/>
<stop offset="0.781429" stop-color="#E6CE92"/>
<stop offset="1" stop-color="#CDA236"/>
</linearGradient>
<linearGradient id="paint22_linear_1049_1223" x1="652.514" y1="4" x2="652.514" y2="143.266" gradientUnits="userSpaceOnUse">
<stop stop-color="#FFB800"/>
<stop offset="1" stop-color="#5B1D10"/>
</linearGradient>
<linearGradient id="paint23_linear_1049_1223" x1="649.664" y1="147.22" x2="662.628" y2="-223.736" gradientUnits="userSpaceOnUse">
<stop stop-color="#BE8800"/>
<stop offset="0.206231" stop-color="#E6CE92"/>
<stop offset="0.518895" stop-color="#FFFAF1"/>
<stop offset="0.781429" stop-color="#E6CE92"/>
<stop offset="1" stop-color="#CDA236"/>
</linearGradient>
<linearGradient id="paint24_linear_1049_1223" x1="119.113" y1="96.7319" x2="1063.8" y2="101.522" gradientUnits="userSpaceOnUse">
<stop offset="0.518895" stop-color="#FFFAF1"/>
<stop offset="0.781429" stop-color="#E6CE92"/>
<stop offset="1" stop-color="#CDA236"/>
</linearGradient>
</defs>
</svg>
